<svg width="72" height="72" viewBox="0 0 72 72" fill="none" xmlns="http://www.w3.org/2000/svg">
<path opacity="0.931" fill-rule="evenodd" clip-rule="evenodd" d="M11.6016 9.91406C16.9847 10.7174 22.3753 11.4909 27.7734 12.2344C27.9958 12.3337 28.2067 12.4509 28.4062 12.5859C30.3152 14.9511 32.1902 17.3417 34.0312 19.7578C34.2472 21.3043 33.6144 21.7965 32.1328 21.2344C30.5089 19.2826 28.9387 17.2904 27.4219 15.2578C27.1768 14.9646 26.8955 14.7302 26.5781 14.5547C22.1431 13.9178 17.7134 13.2615 13.2891 12.5859C13.794 17.1757 14.4267 21.7695 15.1875 26.3672C17.8068 28.4705 20.3849 30.6267 22.9219 32.8359C23.3425 33.8697 23.0144 34.5258 21.9375 34.8047C21.5522 34.7141 21.2006 34.55 20.8828 34.3125C18.3926 32.1501 15.8614 30.0407 13.2891 27.9844C13.1201 27.8574 13.0029 27.6934 12.9375 27.4922C12.0975 22.0573 11.2772 16.6198 10.4766 11.1797C10.5668 10.4812 10.9418 10.0593 11.6016 9.91406Z" fill="#B98EF8"/>
<path opacity="0.925" fill-rule="evenodd" clip-rule="evenodd" d="M60.6796 9.91406C61.5666 10.0453 61.9417 10.5609 61.8046 11.4609C61.1341 16.9279 60.3138 22.3653 59.3436 27.7734C50.4993 34.8789 41.6164 41.9335 32.6952 48.9375C33.7031 49.9454 34.7108 50.9531 35.7186 51.9609C35.9999 52.5234 35.9999 53.0859 35.7186 53.6484C33.5796 55.4596 31.3999 57.2174 29.1796 58.9219C28.6924 59.0368 28.2236 58.9898 27.7733 58.7813C26.7635 57.7479 25.7323 56.7401 24.6796 55.7578C22.7831 57.584 20.9081 59.4356 19.0546 61.3125C16.5848 63.1496 14.0535 63.2434 11.4608 61.5938C8.6649 58.9237 8.36022 55.9941 10.5468 52.8047C12.4238 50.9511 14.2753 49.0762 16.1014 47.1797C15.1192 46.127 14.1113 45.0958 13.078 44.0859C12.8694 43.6357 12.8226 43.1668 12.9374 42.6797C14.6913 40.364 16.5429 38.1375 18.4921 36C18.9792 35.8851 19.448 35.9321 19.8983 36.1406C20.7186 36.9609 21.539 37.7813 22.3593 38.6016C29.6182 29.9192 36.8604 21.224 44.0858 12.5156C44.309 12.3944 44.5434 12.3006 44.7889 12.2344C50.1105 11.4909 55.4074 10.7175 60.6796 9.91406ZM58.8514 12.5859C59.0167 12.5551 59.1573 12.602 59.2733 12.7266C58.6094 17.2803 57.9063 21.8273 57.1639 26.3672C48.492 33.2813 39.8202 40.1953 31.1483 47.1094C31.0545 47.2032 30.9609 47.2032 30.8671 47.1094C30.0233 46.3125 29.1796 45.5157 28.3358 44.7188C36.0467 37.1953 43.7577 29.6719 51.4686 22.1484C52.0307 20.6668 51.5385 20.034 49.9921 20.25C42.3595 27.5074 34.8127 34.8667 27.3514 42.3281C27.0886 42.5534 26.8074 42.694 26.5077 42.75C25.7108 41.9531 24.914 41.1563 24.1171 40.3594C31.1891 31.7402 38.314 23.1621 45.4921 14.625C49.9651 13.9494 54.4182 13.2697 58.8514 12.5859ZM19.0546 38.8828C23.7138 43.4717 28.3544 48.0888 32.9764 52.7344C31.5498 53.8563 30.1436 55.0046 28.7577 56.1797C27.6581 55.1505 26.58 54.0958 25.5233 53.0156C25.073 52.8071 24.6042 52.7601 24.1171 52.875C21.7774 55.0741 19.4805 57.3241 17.2264 59.625C14.7081 60.9262 12.8566 60.2934 11.6718 57.7266C11.4491 56.6093 11.6366 55.5781 12.2343 54.6328C14.5352 52.3787 16.7852 50.0819 18.9843 47.7422C19.0992 47.2551 19.0522 46.7862 18.8436 46.3359C17.7635 45.2793 16.7088 44.2011 15.6796 43.1016C16.8614 41.7333 17.9864 40.327 19.0546 38.8828Z" fill="#B98EF8"/>
<path opacity="0.915" fill-rule="evenodd" clip-rule="evenodd" d="M22.5568 22.0129C23.0458 21.9685 23.5147 22.0388 23.963 22.2238C25.8574 24.2588 27.8026 26.2511 29.7989 28.2004C30.3186 29.2192 30.0373 29.9224 28.9552 30.3098C28.6493 30.2036 28.3447 30.0865 28.0411 29.9582C26.1468 27.9232 24.2015 25.931 22.2052 23.9817C21.8431 23.213 21.9602 22.5567 22.5568 22.0129Z" fill="#B98EF8"/>
<path opacity="0.918" fill-rule="evenodd" clip-rule="evenodd" d="M52.8049 35.9297C53.294 35.8852 53.7628 35.9555 54.2111 36.1406C55.9221 38.2265 57.633 40.3125 59.344 42.3984C59.6252 42.9609 59.6252 43.5234 59.344 44.0859C58.3106 45.0957 57.3028 46.1269 56.3205 47.1797C58.0998 49.0293 59.9045 50.8574 61.7346 52.664C63.4667 54.9741 63.6541 57.4115 62.2971 59.9765C60.1056 62.698 57.4102 63.3309 54.2111 61.875C53.8831 61.6405 53.5548 61.4063 53.2268 61.1718C51.4202 59.3417 49.592 57.5371 47.7424 55.7578C46.7366 56.6932 45.7523 57.6541 44.7893 58.6406C44.213 59.0464 43.6037 59.0933 42.9611 58.7812C41.6699 57.7239 40.4278 56.6222 39.2346 55.4765C39.0236 54.1874 39.5627 53.6484 40.8518 53.8593C41.8097 54.6062 42.7472 55.3796 43.6643 56.1797C44.7638 55.1504 45.842 54.0957 46.8986 53.0156C47.3489 52.807 47.8178 52.7601 48.3049 52.875C50.7423 55.2188 53.1799 57.5624 55.6174 59.9062C58.035 60.818 59.7459 60.0916 60.7502 57.7265C60.9022 56.8049 60.8084 55.9142 60.469 55.0547C58.1252 52.6172 55.7815 50.1796 53.4377 47.7422C53.3228 47.255 53.3698 46.7862 53.5783 46.3359C54.6585 45.2792 55.7132 44.2011 56.7424 43.1015C55.5673 41.7157 54.419 40.3094 53.2971 38.8828C49.0588 43.2617 44.7697 47.5976 40.4299 51.8906C38.9491 52.1448 38.4101 51.5589 38.8127 50.1328C43.4619 45.3664 48.126 40.6322 52.8049 35.9297Z" fill="#B98EF8"/>
</svg>
