<svg width="349" height="96" viewBox="0 0 349 96" fill="none" xmlns="http://www.w3.org/2000/svg">
<path d="M1.5 1.5H316.759L346.781 32.2628V94.5H22.4886L1.5 69.3691V1.5Z" stroke="#BDB2F6" stroke-width="3"/>
<path d="M329.28 0H348.28V20L338.78 10.5263L329.28 0Z" fill="#BDB2F6"/>
<path d="M129.43 57C126.987 57 125.179 56.4187 124.006 55.256C122.843 54.0827 122.262 52.2747 122.262 49.832V42.472C122.262 40.008 122.843 38.1947 124.006 37.032C125.169 35.8587 126.966 35.2827 129.398 35.304H133.27C135.275 35.304 136.806 35.72 137.862 36.552C138.918 37.3733 139.531 38.6747 139.702 40.456C139.766 40.904 139.681 41.2453 139.446 41.48C139.211 41.7147 138.87 41.832 138.422 41.832C137.611 41.832 137.142 41.384 137.014 40.488C136.907 39.5067 136.566 38.8453 135.99 38.504C135.425 38.1627 134.518 37.992 133.27 37.992H129.398C128.267 37.9813 127.377 38.1093 126.726 38.376C126.086 38.6427 125.627 39.1067 125.35 39.768C125.083 40.4187 124.95 41.32 124.95 42.472V49.832C124.95 50.9733 125.083 51.8693 125.35 52.52C125.627 53.1707 126.091 53.6347 126.742 53.912C127.393 54.1787 128.289 54.312 129.43 54.312H133.27C134.518 54.312 135.425 54.1413 135.99 53.8C136.566 53.448 136.907 52.7867 137.014 51.816C137.142 50.92 137.611 50.472 138.422 50.472C138.87 50.472 139.211 50.5893 139.446 50.824C139.681 51.0587 139.766 51.4 139.702 51.848C139.531 53.64 138.918 54.9467 137.862 55.768C136.806 56.5893 135.275 57 133.27 57H129.43ZM149.678 57C147.886 57 146.553 56.5627 145.678 55.688C144.804 54.8133 144.366 53.48 144.366 51.688C144.366 49.896 144.798 48.5627 145.662 47.688C146.537 46.8133 147.876 46.376 149.678 46.376H156.446C156.382 45.256 156.089 44.4933 155.566 44.088C155.044 43.672 154.148 43.464 152.878 43.464H151.022C149.956 43.464 149.161 43.5387 148.638 43.688C148.116 43.8267 147.748 44.0827 147.534 44.456C147.342 44.904 147.145 45.2133 146.942 45.384C146.74 45.5547 146.436 45.64 146.03 45.64C145.582 45.64 145.23 45.5173 144.974 45.272C144.718 45.016 144.644 44.68 144.75 44.264C145.07 43.0587 145.737 42.1787 146.75 41.624C147.774 41.0587 149.198 40.776 151.022 40.776H152.878C155.012 40.776 156.59 41.288 157.614 42.312C158.638 43.336 159.15 44.9147 159.15 47.048V55.656C159.15 56.552 158.702 57 157.806 57C156.91 57 156.462 56.552 156.462 55.656V54.936C155.321 56.312 153.657 57 151.47 57H149.678ZM149.678 54.312H151.47C152.26 54.312 153.001 54.2427 153.694 54.104C154.388 53.9547 154.98 53.688 155.47 53.304C155.972 52.92 156.302 52.3707 156.462 51.656V49.064H149.678C148.622 49.064 147.918 49.24 147.566 49.592C147.225 49.944 147.054 50.6427 147.054 51.688C147.054 52.744 147.225 53.448 147.566 53.8C147.918 54.1413 148.622 54.312 149.678 54.312ZM166.843 57C165.947 57 165.499 56.552 165.499 55.656V42.12C165.499 41.224 165.947 40.776 166.843 40.776C167.739 40.776 168.187 41.224 168.187 42.12V42.648C169.318 41.4 170.982 40.776 173.179 40.776H174.075C176.208 40.776 177.787 41.288 178.811 42.312C179.835 43.336 180.347 44.9147 180.347 47.048V55.656C180.347 56.552 179.899 57 179.003 57C178.107 57 177.659 56.552 177.659 55.656V47.048C177.659 45.6507 177.403 44.7067 176.891 44.216C176.39 43.7147 175.451 43.464 174.075 43.464H173.179C171.899 43.464 170.784 43.6133 169.835 43.912C168.886 44.2 168.336 44.6587 168.187 45.288V55.656C168.187 56.552 167.739 57 166.843 57ZM192.19 57C190.068 57 188.489 56.488 187.454 55.464C186.43 54.4293 185.918 52.8507 185.918 50.728V47.016C185.918 44.8827 186.425 43.304 187.438 42.28C188.462 41.256 190.046 40.7547 192.19 40.776H194.814C196.404 40.776 197.652 41.0427 198.558 41.576C199.476 42.1093 200.062 42.9307 200.318 44.04C200.414 44.488 200.334 44.8347 200.078 45.08C199.833 45.3253 199.476 45.448 199.006 45.448C198.59 45.448 198.286 45.3413 198.094 45.128C197.902 44.9147 197.726 44.616 197.566 44.232C197.406 43.944 197.113 43.7467 196.686 43.64C196.26 43.5227 195.636 43.464 194.814 43.464H192.19C190.814 43.4427 189.87 43.6827 189.358 44.184C188.857 44.6747 188.606 45.6187 188.606 47.016V50.728C188.606 52.1147 188.857 53.0587 189.358 53.56C189.87 54.0613 190.814 54.312 192.19 54.312H194.814C195.636 54.312 196.26 54.2587 196.686 54.152C197.113 54.0347 197.406 53.832 197.566 53.544C197.726 53.1387 197.902 52.8347 198.094 52.632C198.297 52.4293 198.612 52.328 199.038 52.328C199.486 52.328 199.833 52.4507 200.078 52.696C200.334 52.9413 200.414 53.288 200.318 53.736C200.062 54.8347 199.476 55.656 198.558 56.2C197.652 56.7333 196.404 57 194.814 57H192.19ZM207.825 49.992V50.76C207.825 52.136 208.076 53.0747 208.577 53.576C209.078 54.0667 210.022 54.312 211.409 54.312H214.033C215.121 54.312 215.926 54.2107 216.449 54.008C216.972 53.8053 217.318 53.448 217.489 52.936C217.606 52.5307 217.766 52.2213 217.969 52.008C218.182 51.7947 218.502 51.688 218.929 51.688C219.377 51.688 219.718 51.8053 219.953 52.04C220.188 52.2747 220.262 52.616 220.177 53.064C219.942 54.3867 219.313 55.3733 218.289 56.024C217.265 56.6747 215.846 57 214.033 57H211.409C209.286 57 207.708 56.488 206.673 55.464C205.649 54.44 205.137 52.872 205.137 50.76V47.048C205.137 44.8827 205.649 43.2933 206.673 42.28C207.708 41.256 209.286 40.7547 211.409 40.776H214.033C216.166 40.776 217.745 41.288 218.769 42.312C219.793 43.3253 220.305 44.904 220.305 47.048V48.648C220.305 49.544 219.857 49.992 218.961 49.992H207.825ZM211.409 43.464C210.022 43.4427 209.078 43.6827 208.577 44.184C208.076 44.6853 207.825 45.64 207.825 47.048V47.304H217.617V47.048C217.617 45.6507 217.366 44.7067 216.865 44.216C216.374 43.7147 215.43 43.464 214.033 43.464H211.409ZM231.018 57C229.386 57 228.17 56.6 227.37 55.8C226.581 54.9893 226.186 53.768 226.186 52.136V35.816C226.186 34.92 226.634 34.472 227.53 34.472C228.426 34.472 228.874 34.92 228.874 35.816V52.136C228.874 53 229.013 53.5813 229.29 53.88C229.578 54.168 230.154 54.312 231.018 54.312C231.936 54.312 232.394 54.76 232.394 55.656C232.426 56.552 231.968 57 231.018 57Z" fill="white"/>
</svg>
