<svg width="123" height="123" viewBox="0 0 123 123" fill="none" xmlns="http://www.w3.org/2000/svg">
<path d="M1 0.5H0.5V1V121V121.64L1.12127 121.485L97.1213 97.4851L97.4123 97.4123L97.4851 97.1213L121.485 1.12127L121.64 0.5H121H1Z" fill="#FB3535" fill-opacity="0.15" stroke="#DF7E7E"/>
<path d="M56.7153 53.0008L67.1059 42.6101C67.599 42.1179 67.8764 41.4499 67.877 40.7531C67.8777 40.0563 67.6014 39.3878 67.1092 38.8947C66.6169 38.4015 65.9489 38.1242 65.2521 38.1235C64.5553 38.1229 63.8868 38.3991 63.3937 38.8914L53.0031 49.282L42.6125 38.8914C42.1193 38.3983 41.4505 38.1212 40.7531 38.1212C40.0557 38.1212 39.3869 38.3983 38.8937 38.8914C38.4006 39.3845 38.1235 40.0534 38.1235 40.7508C38.1235 41.4482 38.4006 42.117 38.8937 42.6101L49.2843 53.0008L38.8937 63.3914C38.4006 63.8845 38.1235 64.5534 38.1235 65.2508C38.1235 65.9482 38.4006 66.617 38.8937 67.1101C39.3869 67.6033 40.0557 67.8803 40.7531 67.8803C41.4505 67.8803 42.1193 67.6033 42.6125 67.1101L53.0031 56.7195L63.3937 67.1101C63.8868 67.6033 64.5557 67.8803 65.2531 67.8803C65.9505 67.8803 66.6193 67.6033 67.1125 67.1101C67.6056 66.617 67.8826 65.9482 67.8826 65.2508C67.8826 64.5534 67.6056 63.8845 67.1125 63.3914L56.7153 53.0008Z" fill="#ED6767"/>
</svg>
