<svg width="435" height="96" viewBox="0 0 435 96" fill="none" xmlns="http://www.w3.org/2000/svg">
<path d="M1.5 1.5H396.225L433.5 40.2565V94.5H27.507L1.5 69.2782V1.5Z" fill="url(#paint0_linear_10_24)" stroke="#C6A3FF" stroke-width="3"/>
<path d="M411 0H435V26L423 13.6842L411 0Z" fill="#C6A3FF"/>
<path d="M104.962 57C102.52 57 100.712 56.4187 99.5384 55.256C98.3757 54.0827 97.7944 52.2747 97.7944 49.832V42.472C97.7944 40.008 98.3757 38.1947 99.5384 37.032C100.701 35.8587 102.498 35.2827 104.93 35.304H108.802C110.808 35.304 112.338 35.72 113.394 36.552C114.45 37.3733 115.064 38.6747 115.234 40.456C115.298 40.904 115.213 41.2453 114.978 41.48C114.744 41.7147 114.402 41.832 113.954 41.832C113.144 41.832 112.674 41.384 112.546 40.488C112.44 39.5067 112.098 38.8453 111.522 38.504C110.957 38.1627 110.05 37.992 108.802 37.992H104.93C103.8 37.9813 102.909 38.1093 102.258 38.376C101.618 38.6427 101.16 39.1067 100.882 39.768C100.616 40.4187 100.482 41.32 100.482 42.472V49.832C100.482 50.9733 100.616 51.8693 100.882 52.52C101.16 53.1707 101.624 53.6347 102.274 53.912C102.925 54.1787 103.821 54.312 104.962 54.312H108.802C110.05 54.312 110.957 54.1413 111.522 53.8C112.098 53.448 112.44 52.7867 112.546 51.816C112.674 50.92 113.144 50.472 113.954 50.472C114.402 50.472 114.744 50.5893 114.978 50.824C115.213 51.0587 115.298 51.4 115.234 51.848C115.064 53.64 114.45 54.9467 113.394 55.768C112.338 56.5893 110.808 57 108.802 57H104.962ZM125.066 57C122.944 57 121.365 56.488 120.33 55.464C119.306 54.44 118.794 52.872 118.794 50.76V47.048C118.794 44.904 119.306 43.3253 120.33 42.312C121.365 41.288 122.944 40.776 125.066 40.776H127.69C129.824 40.776 131.402 41.288 132.426 42.312C133.45 43.336 133.962 44.9147 133.962 47.048V50.728C133.962 52.8507 133.45 54.4293 132.426 55.464C131.402 56.488 129.824 57 127.69 57H125.066ZM121.482 50.76C121.482 52.136 121.733 53.0747 122.234 53.576C122.736 54.0667 123.68 54.312 125.066 54.312H127.69C129.088 54.312 130.032 54.0613 130.522 53.56C131.024 53.0587 131.274 52.1147 131.274 50.728V47.048C131.274 45.6507 131.024 44.7067 130.522 44.216C130.032 43.7147 129.088 43.464 127.69 43.464H125.066C124.138 43.464 123.413 43.5707 122.89 43.784C122.378 43.9867 122.016 44.3493 121.802 44.872C121.589 45.384 121.482 46.1093 121.482 47.048V50.76ZM141.188 57C140.292 57 139.844 56.552 139.844 55.656V42.12C139.844 41.224 140.292 40.776 141.188 40.776C142.084 40.776 142.532 41.224 142.532 42.12V42.648C143.662 41.4 145.326 40.776 147.524 40.776H148.42C150.553 40.776 152.132 41.288 153.156 42.312C154.18 43.336 154.692 44.9147 154.692 47.048V55.656C154.692 56.552 154.244 57 153.348 57C152.452 57 152.004 56.552 152.004 55.656V47.048C152.004 45.6507 151.748 44.7067 151.236 44.216C150.734 43.7147 149.796 43.464 148.42 43.464H147.524C146.244 43.464 145.129 43.6133 144.18 43.912C143.23 44.2 142.681 44.6587 142.532 45.288V55.656C142.532 56.552 142.084 57 141.188 57ZM162.375 57C161.479 57 161.031 56.552 161.031 55.656V42.12C161.031 41.224 161.479 40.776 162.375 40.776C163.271 40.776 163.719 41.224 163.719 42.12V42.648C164.85 41.4 166.514 40.776 168.711 40.776H169.607C171.74 40.776 173.319 41.288 174.343 42.312C175.367 43.336 175.879 44.9147 175.879 47.048V55.656C175.879 56.552 175.431 57 174.535 57C173.639 57 173.191 56.552 173.191 55.656V47.048C173.191 45.6507 172.935 44.7067 172.423 44.216C171.922 43.7147 170.983 43.464 169.607 43.464H168.711C167.431 43.464 166.316 43.6133 165.367 43.912C164.418 44.2 163.868 44.6587 163.719 45.288V55.656C163.719 56.552 163.271 57 162.375 57ZM184.139 49.992V50.76C184.139 52.136 184.389 53.0747 184.891 53.576C185.392 54.0667 186.336 54.312 187.723 54.312H190.347C191.435 54.312 192.24 54.2107 192.763 54.008C193.285 53.8053 193.632 53.448 193.803 52.936C193.92 52.5307 194.08 52.2213 194.283 52.008C194.496 51.7947 194.816 51.688 195.243 51.688C195.691 51.688 196.032 51.8053 196.267 52.04C196.501 52.2747 196.576 52.616 196.491 53.064C196.256 54.3867 195.627 55.3733 194.603 56.024C193.579 56.6747 192.16 57 190.347 57H187.723C185.6 57 184.021 56.488 182.987 55.464C181.963 54.44 181.451 52.872 181.451 50.76V47.048C181.451 44.8827 181.963 43.2933 182.987 42.28C184.021 41.256 185.6 40.7547 187.723 40.776H190.347C192.48 40.776 194.059 41.288 195.083 42.312C196.107 43.3253 196.619 44.904 196.619 47.048V48.648C196.619 49.544 196.171 49.992 195.275 49.992H184.139ZM187.723 43.464C186.336 43.4427 185.392 43.6827 184.891 44.184C184.389 44.6853 184.139 45.64 184.139 47.048V47.304H193.931V47.048C193.931 45.6507 193.68 44.7067 193.179 44.216C192.688 43.7147 191.744 43.464 190.347 43.464H187.723ZM208.004 57C205.881 57 204.303 56.488 203.268 55.464C202.244 54.4293 201.732 52.8507 201.732 50.728V47.016C201.732 44.8827 202.239 43.304 203.252 42.28C204.276 41.256 205.86 40.7547 208.004 40.776H210.628C212.217 40.776 213.465 41.0427 214.372 41.576C215.289 42.1093 215.876 42.9307 216.132 44.04C216.228 44.488 216.148 44.8347 215.892 45.08C215.647 45.3253 215.289 45.448 214.82 45.448C214.404 45.448 214.1 45.3413 213.908 45.128C213.716 44.9147 213.54 44.616 213.38 44.232C213.22 43.944 212.927 43.7467 212.5 43.64C212.073 43.5227 211.449 43.464 210.628 43.464H208.004C206.628 43.4427 205.684 43.6827 205.172 44.184C204.671 44.6747 204.42 45.6187 204.42 47.016V50.728C204.42 52.1147 204.671 53.0587 205.172 53.56C205.684 54.0613 206.628 54.312 208.004 54.312H210.628C211.449 54.312 212.073 54.2587 212.5 54.152C212.927 54.0347 213.22 53.832 213.38 53.544C213.54 53.1387 213.716 52.8347 213.908 52.632C214.111 52.4293 214.425 52.328 214.852 52.328C215.3 52.328 215.647 52.4507 215.892 52.696C216.148 52.9413 216.228 53.288 216.132 53.736C215.876 54.8347 215.289 55.656 214.372 56.2C213.465 56.7333 212.217 57 210.628 57H208.004ZM228.567 57C226.455 57 224.897 56.4987 223.895 55.496C222.892 54.4933 222.391 52.9467 222.391 50.856V43.464H220.823C219.927 43.464 219.479 43.016 219.479 42.12C219.479 41.224 219.927 40.776 220.823 40.776H222.391V38.44C222.391 37.544 222.839 37.096 223.735 37.096C224.631 37.096 225.079 37.544 225.079 38.44V40.776H228.759C229.655 40.776 230.103 41.224 230.103 42.12C230.103 43.016 229.655 43.464 228.759 43.464H225.079V50.856C225.079 52.2107 225.324 53.128 225.815 53.608C226.305 54.0773 227.223 54.312 228.567 54.312C228.983 54.312 229.308 54.4187 229.543 54.632C229.788 54.8453 229.911 55.1867 229.911 55.656C229.911 56.552 229.463 57 228.567 57ZM248.899 57C248.195 57 247.726 56.6373 247.491 55.912L243.043 42.536C242.766 41.7253 243.054 41.1707 243.907 40.872C244.75 40.584 245.315 40.872 245.603 41.736L249.219 52.504H249.011L252.419 41.736C252.654 41.032 253.166 40.68 253.955 40.68C254.702 40.68 255.182 41.0533 255.395 41.8L258.579 52.392H258.451L262.147 41.704C262.457 40.84 263.033 40.5627 263.875 40.872C264.718 41.1707 264.985 41.7467 264.675 42.6L259.811 55.912C259.545 56.6373 259.043 57 258.307 57C257.55 57 257.059 56.6267 256.835 55.88L253.539 44.872H253.891L250.307 55.912C250.201 56.264 250.025 56.536 249.779 56.728C249.534 56.9093 249.241 57 248.899 57ZM273.898 57C272.106 57 270.773 56.5627 269.898 55.688C269.023 54.8133 268.586 53.48 268.586 51.688C268.586 49.896 269.018 48.5627 269.882 47.688C270.757 46.8133 272.095 46.376 273.898 46.376H280.666C280.602 45.256 280.309 44.4933 279.786 44.088C279.263 43.672 278.367 43.464 277.098 43.464H275.242C274.175 43.464 273.381 43.5387 272.858 43.688C272.335 43.8267 271.967 44.0827 271.754 44.456C271.562 44.904 271.365 45.2133 271.162 45.384C270.959 45.5547 270.655 45.64 270.25 45.64C269.802 45.64 269.45 45.5173 269.194 45.272C268.938 45.016 268.863 44.68 268.97 44.264C269.29 43.0587 269.957 42.1787 270.97 41.624C271.994 41.0587 273.418 40.776 275.242 40.776H277.098C279.231 40.776 280.81 41.288 281.834 42.312C282.858 43.336 283.37 44.9147 283.37 47.048V55.656C283.37 56.552 282.922 57 282.026 57C281.13 57 280.682 56.552 280.682 55.656V54.936C279.541 56.312 277.877 57 275.69 57H273.898ZM273.898 54.312H275.69C276.479 54.312 277.221 54.2427 277.914 54.104C278.607 53.9547 279.199 53.688 279.69 53.304C280.191 52.92 280.522 52.3707 280.682 51.656V49.064H273.898C272.842 49.064 272.138 49.24 271.786 49.592C271.445 49.944 271.274 50.6427 271.274 51.688C271.274 52.744 271.445 53.448 271.786 53.8C272.138 54.1413 272.842 54.312 273.898 54.312ZM294.551 57C292.919 57 291.703 56.6 290.903 55.8C290.113 54.9893 289.719 53.768 289.719 52.136V35.816C289.719 34.92 290.167 34.472 291.063 34.472C291.959 34.472 292.407 34.92 292.407 35.816V52.136C292.407 53 292.545 53.5813 292.823 53.88C293.111 54.168 293.687 54.312 294.551 54.312C295.468 54.312 295.927 54.76 295.927 55.656C295.959 56.552 295.5 57 294.551 57ZM305.519 57C303.887 57 302.671 56.6 301.871 55.8C301.082 54.9893 300.687 53.768 300.687 52.136V35.816C300.687 34.92 301.135 34.472 302.031 34.472C302.927 34.472 303.375 34.92 303.375 35.816V52.136C303.375 53 303.514 53.5813 303.791 53.88C304.079 54.168 304.655 54.312 305.519 54.312C306.437 54.312 306.895 54.76 306.895 55.656C306.927 56.552 306.469 57 305.519 57ZM312.951 49.992V50.76C312.951 52.136 313.202 53.0747 313.703 53.576C314.204 54.0667 315.148 54.312 316.535 54.312H319.159C320.247 54.312 321.052 54.2107 321.575 54.008C322.098 53.8053 322.444 53.448 322.615 52.936C322.732 52.5307 322.892 52.2213 323.095 52.008C323.308 51.7947 323.628 51.688 324.055 51.688C324.503 51.688 324.844 51.8053 325.079 52.04C325.314 52.2747 325.388 52.616 325.303 53.064C325.068 54.3867 324.439 55.3733 323.415 56.024C322.391 56.6747 320.972 57 319.159 57H316.535C314.412 57 312.834 56.488 311.799 55.464C310.775 54.44 310.263 52.872 310.263 50.76V47.048C310.263 44.8827 310.775 43.2933 311.799 42.28C312.834 41.256 314.412 40.7547 316.535 40.776H319.159C321.292 40.776 322.871 41.288 323.895 42.312C324.919 43.3253 325.431 44.904 325.431 47.048V48.648C325.431 49.544 324.983 49.992 324.087 49.992H312.951ZM316.535 43.464C315.148 43.4427 314.204 43.6827 313.703 44.184C313.202 44.6853 312.951 45.64 312.951 47.048V47.304H322.743V47.048C322.743 45.6507 322.492 44.7067 321.991 44.216C321.5 43.7147 320.556 43.464 319.159 43.464H316.535ZM337.535 57C335.423 57 333.866 56.4987 332.863 55.496C331.861 54.4933 331.359 52.9467 331.359 50.856V43.464H329.791C328.895 43.464 328.447 43.016 328.447 42.12C328.447 41.224 328.895 40.776 329.791 40.776H331.359V38.44C331.359 37.544 331.807 37.096 332.703 37.096C333.599 37.096 334.047 37.544 334.047 38.44V40.776H337.727C338.623 40.776 339.071 41.224 339.071 42.12C339.071 43.016 338.623 43.464 337.727 43.464H334.047V50.856C334.047 52.2107 334.293 53.128 334.783 53.608C335.274 54.0773 336.191 54.312 337.535 54.312C337.951 54.312 338.277 54.4187 338.511 54.632C338.757 54.8453 338.879 55.1867 338.879 55.656C338.879 56.552 338.431 57 337.535 57Z" fill="white"/>
<defs>
<linearGradient id="paint0_linear_10_24" x1="217.5" y1="-34.5" x2="217.5" y2="96" gradientUnits="userSpaceOnUse">
<stop stop-color="#6331B6" stop-opacity="0"/>
<stop offset="1" stop-color="#7135D4"/>
</linearGradient>
</defs>
</svg>
