<svg width="445" height="192" viewBox="0 0 445 192" fill="none" xmlns="http://www.w3.org/2000/svg">
<g filter="url(#filter0_d_29_1258)">
<path d="M49.5 49.5H364.759L394.781 80.2628V142.5H70.4886L49.5 117.369V49.5Z" fill="url(#paint0_linear_29_1258)" stroke="#C6A3FF" stroke-width="3"/>
<path d="M377 48H396V68L386.5 58.5263L377 48Z" fill="#C6A3FF"/>
<path d="M159.865 105C157.422 105 155.614 104.419 154.441 103.256C153.278 102.083 152.697 100.275 152.697 97.832V90.472C152.697 88.008 153.278 86.1947 154.441 85.032C155.603 83.8587 157.401 83.2827 159.833 83.304H163.705C165.71 83.304 167.241 83.72 168.297 84.552C169.353 85.3733 169.966 86.6747 170.137 88.456C170.201 88.904 170.115 89.2453 169.881 89.48C169.646 89.7147 169.305 89.832 168.857 89.832C168.046 89.832 167.577 89.384 167.449 88.488C167.342 87.5067 167.001 86.8453 166.425 86.504C165.859 86.1627 164.953 85.992 163.705 85.992H159.833C158.702 85.9813 157.811 86.1093 157.161 86.376C156.521 86.6427 156.062 87.1067 155.785 87.768C155.518 88.4187 155.385 89.32 155.385 90.472V97.832C155.385 98.9733 155.518 99.8693 155.785 100.52C156.062 101.171 156.526 101.635 157.177 101.912C157.827 102.179 158.723 102.312 159.865 102.312H163.705C164.953 102.312 165.859 102.141 166.425 101.8C167.001 101.448 167.342 100.787 167.449 99.816C167.577 98.92 168.046 98.472 168.857 98.472C169.305 98.472 169.646 98.5893 169.881 98.824C170.115 99.0587 170.201 99.4 170.137 99.848C169.966 101.64 169.353 102.947 168.297 103.768C167.241 104.589 165.71 105 163.705 105H159.865ZM179.969 105C177.846 105 176.267 104.488 175.233 103.464C174.209 102.44 173.697 100.872 173.697 98.76V95.048C173.697 92.904 174.209 91.3253 175.233 90.312C176.267 89.288 177.846 88.776 179.969 88.776H182.593C184.726 88.776 186.305 89.288 187.329 90.312C188.353 91.336 188.865 92.9147 188.865 95.048V98.728C188.865 100.851 188.353 102.429 187.329 103.464C186.305 104.488 184.726 105 182.593 105H179.969ZM176.385 98.76C176.385 100.136 176.635 101.075 177.137 101.576C177.638 102.067 178.582 102.312 179.969 102.312H182.593C183.99 102.312 184.934 102.061 185.425 101.56C185.926 101.059 186.177 100.115 186.177 98.728V95.048C186.177 93.6507 185.926 92.7067 185.425 92.216C184.934 91.7147 183.99 91.464 182.593 91.464H179.969C179.041 91.464 178.315 91.5707 177.793 91.784C177.281 91.9867 176.918 92.3493 176.705 92.872C176.491 93.384 176.385 94.1093 176.385 95.048V98.76ZM196.09 105C195.194 105 194.746 104.552 194.746 103.656V90.12C194.746 89.224 195.194 88.776 196.09 88.776C196.986 88.776 197.434 89.224 197.434 90.12V90.648C198.565 89.4 200.229 88.776 202.426 88.776H203.322C205.455 88.776 207.034 89.288 208.058 90.312C209.082 91.336 209.594 92.9147 209.594 95.048V103.656C209.594 104.552 209.146 105 208.25 105C207.354 105 206.906 104.552 206.906 103.656V95.048C206.906 93.6507 206.65 92.7067 206.138 92.216C205.637 91.7147 204.698 91.464 203.322 91.464H202.426C201.146 91.464 200.031 91.6133 199.082 91.912C198.133 92.2 197.583 92.6587 197.434 93.288V103.656C197.434 104.552 196.986 105 196.09 105ZM222.781 105C220.669 105 219.112 104.499 218.109 103.496C217.107 102.493 216.605 100.947 216.605 98.856V91.464H215.037C214.141 91.464 213.693 91.016 213.693 90.12C213.693 89.224 214.141 88.776 215.037 88.776H216.605V86.44C216.605 85.544 217.053 85.096 217.949 85.096C218.845 85.096 219.293 85.544 219.293 86.44V88.776H222.973C223.869 88.776 224.317 89.224 224.317 90.12C224.317 91.016 223.869 91.464 222.973 91.464H219.293V98.856C219.293 100.211 219.539 101.128 220.029 101.608C220.52 102.077 221.437 102.312 222.781 102.312C223.197 102.312 223.523 102.419 223.757 102.632C224.003 102.845 224.125 103.187 224.125 103.656C224.125 104.552 223.677 105 222.781 105ZM230.236 86.152C229.222 86.152 228.716 85.64 228.716 84.616V83.672C228.716 82.6693 229.222 82.168 230.236 82.168H231.164C232.134 82.168 232.62 82.6693 232.62 83.672V84.616C232.62 85.64 232.134 86.152 231.164 86.152H230.236ZM230.684 105C229.788 105 229.34 104.552 229.34 103.656V90.12C229.34 89.224 229.788 88.776 230.684 88.776C231.58 88.776 232.028 89.224 232.028 90.12V103.656C232.028 104.552 231.58 105 230.684 105ZM240.027 105C239.131 105 238.683 104.552 238.683 103.656V90.12C238.683 89.224 239.131 88.776 240.027 88.776C240.923 88.776 241.371 89.224 241.371 90.12V90.648C242.502 89.4 244.166 88.776 246.363 88.776H247.259C249.393 88.776 250.971 89.288 251.995 90.312C253.019 91.336 253.531 92.9147 253.531 95.048V103.656C253.531 104.552 253.083 105 252.187 105C251.291 105 250.843 104.552 250.843 103.656V95.048C250.843 93.6507 250.587 92.7067 250.075 92.216C249.574 91.7147 248.635 91.464 247.259 91.464H246.363C245.083 91.464 243.969 91.6133 243.019 91.912C242.07 92.2 241.521 92.6587 241.371 93.288V103.656C241.371 104.552 240.923 105 240.027 105ZM273.055 88.776C273.951 88.776 274.399 89.224 274.399 90.12V103.656C274.399 104.552 273.951 105 273.055 105C272.159 105 271.711 104.552 271.711 103.656V103.128C270.58 104.376 268.916 105 266.719 105H265.823C263.7 105 262.122 104.488 261.087 103.464C260.063 102.429 259.551 100.851 259.551 98.728V90.12C259.551 89.224 259.999 88.776 260.895 88.776C261.791 88.776 262.239 89.224 262.239 90.12V98.728C262.239 100.115 262.49 101.059 262.991 101.56C263.503 102.061 264.447 102.312 265.823 102.312H266.719C267.999 102.312 269.114 102.163 270.063 101.864C271.023 101.565 271.572 101.107 271.711 100.488V90.12C271.711 89.224 272.159 88.776 273.055 88.776ZM282.978 97.992V98.76C282.978 100.136 283.229 101.075 283.73 101.576C284.232 102.067 285.176 102.312 286.562 102.312H289.186C290.274 102.312 291.08 102.211 291.602 102.008C292.125 101.805 292.472 101.448 292.642 100.936C292.76 100.531 292.92 100.221 293.122 100.008C293.336 99.7947 293.656 99.688 294.082 99.688C294.53 99.688 294.872 99.8053 295.106 100.04C295.341 100.275 295.416 100.616 295.33 101.064C295.096 102.387 294.466 103.373 293.442 104.024C292.418 104.675 291 105 289.186 105H286.562C284.44 105 282.861 104.488 281.826 103.464C280.802 102.44 280.29 100.872 280.29 98.76V95.048C280.29 92.8827 280.802 91.2933 281.826 90.28C282.861 89.256 284.44 88.7547 286.562 88.776H289.186C291.32 88.776 292.898 89.288 293.922 90.312C294.946 91.3253 295.458 92.904 295.458 95.048V96.648C295.458 97.544 295.01 97.992 294.114 97.992H282.978ZM286.562 91.464C285.176 91.4427 284.232 91.6827 283.73 92.184C283.229 92.6853 282.978 93.64 282.978 95.048V95.304H292.77V95.048C292.77 93.6507 292.52 92.7067 292.018 92.216C291.528 91.7147 290.584 91.464 289.186 91.464H286.562Z" fill="white"/>
</g>
<defs>
<filter id="filter0_d_29_1258" x="0" y="0" width="444.281" height="192" filterUnits="userSpaceOnUse" color-interpolation-filters="sRGB">
<feFlood flood-opacity="0" result="BackgroundImageFix"/>
<feColorMatrix in="SourceAlpha" type="matrix" values="0 0 0 0 0 0 0 0 0 0 0 0 0 0 0 0 0 0 127 0" result="hardAlpha"/>
<feOffset/>
<feGaussianBlur stdDeviation="24"/>
<feComposite in2="hardAlpha" operator="out"/>
<feColorMatrix type="matrix" values="0 0 0 0 0.488295 0 0 0 0 0.304345 0 0 0 0 0.74471 0 0 0 1 0"/>
<feBlend mode="normal" in2="BackgroundImageFix" result="effect1_dropShadow_29_1258"/>
<feBlend mode="normal" in="SourceGraphic" in2="effect1_dropShadow_29_1258" result="shape"/>
</filter>
<linearGradient id="paint0_linear_29_1258" x1="224.165" y1="13.5" x2="224.165" y2="144" gradientUnits="userSpaceOnUse">
<stop stop-color="#321061"/>
<stop offset="1" stop-color="#7135D4"/>
</linearGradient>
</defs>
</svg>
