<svg width="28" height="28" viewBox="0 0 28 28" fill="none" xmlns="http://www.w3.org/2000/svg">
<path fill-rule="evenodd" clip-rule="evenodd" d="M4.99704 4.35114e-06L5 0H18.5L18.5028 4.05312e-06C19.6945 0.00339431 20.8364 0.478289 21.6791 1.32093C22.5217 2.16358 22.9966 3.30548 23 4.49716C23 4.50505 22.9999 4.51294 22.9998 4.52083L22.9898 5H23.4375C25.9573 5 28 7.0427 28 9.5625V23.4375C28 25.9573 25.9573 28 23.4375 28H9.5625C7.0427 28 5 25.9573 5 23.4375V23H4.5L4.49716 23C3.30548 22.9966 2.16358 22.5217 1.32093 21.6791C0.478289 20.8364 0.00339431 19.6945 4.05312e-06 18.5028L0 18.5V5L4.35114e-06 4.99704C0.00391787 3.67295 0.531647 2.40421 1.46793 1.46793C2.40421 0.531647 3.67295 0.00391787 4.99704 4.35114e-06ZM7 23.4375C7 24.8527 8.14727 26 9.5625 26H23.4375C24.8527 26 26 24.8527 26 23.4375V9.5625C26 8.14727 24.8527 7 23.4375 7H21.9721C21.9702 7.00001 21.9682 7.00001 21.9662 7H9.5625C8.14727 7 7 8.14727 7 9.5625V23.4375ZM20.9894 5H9.5625C7.0427 5 5 7.0427 5 9.5625V21H4.50161C3.83884 20.9978 3.20382 20.7335 2.73515 20.2649C2.26649 19.7962 2.00223 19.1612 2 18.4985V5.00159C2.00271 4.20637 2.31981 3.44447 2.88214 2.88214C3.44447 2.31981 4.20637 2.00271 5.00159 2H18.4985C19.1612 2.00223 19.7962 2.26649 20.2649 2.73515C20.7313 3.20156 20.9952 3.83272 21 4.49202L20.9894 5Z" fill="white"/>
</svg>
