<svg width="435" height="96" viewBox="0 0 435 96" fill="none" xmlns="http://www.w3.org/2000/svg">
<path d="M1.5 1.5H396.225L433.5 40.2565V94.5H27.507L1.5 69.2782V1.5Z" stroke="#BDB2F6" stroke-width="3"/>
<path d="M411 0H435V26L423 13.6842L411 0Z" fill="#BDB2F6"/>
<path d="M75.9468 57C73.5041 57 71.6961 56.4187 70.5228 55.256C69.3601 54.0827 68.7788 52.2747 68.7788 49.832V42.472C68.7788 40.008 69.3601 38.1947 70.5228 37.032C71.6854 35.8587 73.4828 35.2827 75.9148 35.304H79.7868C81.7921 35.304 83.3228 35.72 84.3788 36.552C85.4348 37.3733 86.0481 38.6747 86.2188 40.456C86.2828 40.904 86.1974 41.2453 85.9628 41.48C85.7281 41.7147 85.3868 41.832 84.9388 41.832C84.1281 41.832 83.6588 41.384 83.5308 40.488C83.4241 39.5067 83.0828 38.8453 82.5068 38.504C81.9414 38.1627 81.0348 37.992 79.7868 37.992H75.9148C74.7841 37.9813 73.8934 38.1093 73.2428 38.376C72.6028 38.6427 72.1441 39.1067 71.8668 39.768C71.6001 40.4187 71.4668 41.32 71.4668 42.472V49.832C71.4668 50.9733 71.6001 51.8693 71.8668 52.52C72.1441 53.1707 72.6081 53.6347 73.2588 53.912C73.9094 54.1787 74.8054 54.312 75.9468 54.312H79.7868C81.0348 54.312 81.9414 54.1413 82.5068 53.8C83.0828 53.448 83.4241 52.7867 83.5308 51.816C83.6588 50.92 84.1281 50.472 84.9388 50.472C85.3868 50.472 85.7281 50.5893 85.9628 50.824C86.1974 51.0587 86.2828 51.4 86.2188 51.848C86.0481 53.64 85.4348 54.9467 84.3788 55.768C83.3228 56.5893 81.7921 57 79.7868 57H75.9468ZM96.0508 57C93.9281 57 92.3494 56.488 91.3148 55.464C90.2908 54.44 89.7788 52.872 89.7788 50.76V47.048C89.7788 44.904 90.2908 43.3253 91.3148 42.312C92.3494 41.288 93.9281 40.776 96.0508 40.776H98.6748C100.808 40.776 102.387 41.288 103.411 42.312C104.435 43.336 104.947 44.9147 104.947 47.048V50.728C104.947 52.8507 104.435 54.4293 103.411 55.464C102.387 56.488 100.808 57 98.6748 57H96.0508ZM92.4668 50.76C92.4668 52.136 92.7174 53.0747 93.2188 53.576C93.7201 54.0667 94.6641 54.312 96.0508 54.312H98.6748C100.072 54.312 101.016 54.0613 101.507 53.56C102.008 53.0587 102.259 52.1147 102.259 50.728V47.048C102.259 45.6507 102.008 44.7067 101.507 44.216C101.016 43.7147 100.072 43.464 98.6748 43.464H96.0508C95.1228 43.464 94.3974 43.5707 93.8748 43.784C93.3628 43.9867 93.0001 44.3493 92.7868 44.872C92.5734 45.384 92.4668 46.1093 92.4668 47.048V50.76ZM112.172 57C111.276 57 110.828 56.552 110.828 55.656V42.12C110.828 41.224 111.276 40.776 112.172 40.776C113.068 40.776 113.516 41.224 113.516 42.12V42.648C114.647 41.4 116.311 40.776 118.508 40.776H119.404C121.537 40.776 123.116 41.288 124.14 42.312C125.164 43.336 125.676 44.9147 125.676 47.048V55.656C125.676 56.552 125.228 57 124.332 57C123.436 57 122.988 56.552 122.988 55.656V47.048C122.988 45.6507 122.732 44.7067 122.22 44.216C121.719 43.7147 120.78 43.464 119.404 43.464H118.508C117.228 43.464 116.113 43.6133 115.164 43.912C114.215 44.2 113.665 44.6587 113.516 45.288V55.656C113.516 56.552 113.068 57 112.172 57ZM138.864 57C136.752 57 135.194 56.4987 134.192 55.496C133.189 54.4933 132.688 52.9467 132.688 50.856V43.464H131.12C130.224 43.464 129.776 43.016 129.776 42.12C129.776 41.224 130.224 40.776 131.12 40.776H132.688V38.44C132.688 37.544 133.136 37.096 134.032 37.096C134.928 37.096 135.376 37.544 135.376 38.44V40.776H139.056C139.952 40.776 140.4 41.224 140.4 42.12C140.4 43.016 139.952 43.464 139.056 43.464H135.376V50.856C135.376 52.2107 135.621 53.128 136.112 53.608C136.602 54.0773 137.52 54.312 138.864 54.312C139.28 54.312 139.605 54.4187 139.84 54.632C140.085 54.8453 140.208 55.1867 140.208 55.656C140.208 56.552 139.76 57 138.864 57ZM146.318 38.152C145.304 38.152 144.798 37.64 144.798 36.616V35.672C144.798 34.6693 145.304 34.168 146.318 34.168H147.246C148.216 34.168 148.702 34.6693 148.702 35.672V36.616C148.702 37.64 148.216 38.152 147.246 38.152H146.318ZM146.766 57C145.87 57 145.422 56.552 145.422 55.656V42.12C145.422 41.224 145.87 40.776 146.766 40.776C147.662 40.776 148.11 41.224 148.11 42.12V55.656C148.11 56.552 147.662 57 146.766 57ZM156.11 57C155.214 57 154.766 56.552 154.766 55.656V42.12C154.766 41.224 155.214 40.776 156.11 40.776C157.006 40.776 157.454 41.224 157.454 42.12V42.648C158.584 41.4 160.248 40.776 162.446 40.776H163.342C165.475 40.776 167.054 41.288 168.078 42.312C169.102 43.336 169.614 44.9147 169.614 47.048V55.656C169.614 56.552 169.166 57 168.27 57C167.374 57 166.926 56.552 166.926 55.656V47.048C166.926 45.6507 166.67 44.7067 166.158 44.216C165.656 43.7147 164.718 43.464 163.342 43.464H162.446C161.166 43.464 160.051 43.6133 159.102 43.912C158.152 44.2 157.603 44.6587 157.454 45.288V55.656C157.454 56.552 157.006 57 156.11 57ZM189.137 40.776C190.033 40.776 190.481 41.224 190.481 42.12V55.656C190.481 56.552 190.033 57 189.137 57C188.241 57 187.793 56.552 187.793 55.656V55.128C186.662 56.376 184.998 57 182.801 57H181.905C179.782 57 178.204 56.488 177.169 55.464C176.145 54.4293 175.633 52.8507 175.633 50.728V42.12C175.633 41.224 176.081 40.776 176.977 40.776C177.873 40.776 178.321 41.224 178.321 42.12V50.728C178.321 52.1147 178.572 53.0587 179.073 53.56C179.585 54.0613 180.529 54.312 181.905 54.312H182.801C184.081 54.312 185.196 54.1627 186.145 53.864C187.105 53.5653 187.654 53.1067 187.793 52.488V42.12C187.793 41.224 188.241 40.776 189.137 40.776ZM199.061 49.992V50.76C199.061 52.136 199.311 53.0747 199.813 53.576C200.314 54.0667 201.258 54.312 202.645 54.312H205.269C206.357 54.312 207.162 54.2107 207.685 54.008C208.207 53.8053 208.554 53.448 208.725 52.936C208.842 52.5307 209.002 52.2213 209.205 52.008C209.418 51.7947 209.738 51.688 210.165 51.688C210.613 51.688 210.954 51.8053 211.189 52.04C211.423 52.2747 211.498 52.616 211.413 53.064C211.178 54.3867 210.549 55.3733 209.525 56.024C208.501 56.6747 207.082 57 205.269 57H202.645C200.522 57 198.943 56.488 197.909 55.464C196.885 54.44 196.373 52.872 196.373 50.76V47.048C196.373 44.8827 196.885 43.2933 197.909 42.28C198.943 41.256 200.522 40.7547 202.645 40.776H205.269C207.402 40.776 208.981 41.288 210.005 42.312C211.029 43.3253 211.541 44.904 211.541 47.048V48.648C211.541 49.544 211.093 49.992 210.197 49.992H199.061ZM202.645 43.464C201.258 43.4427 200.314 43.6827 199.813 44.184C199.311 44.6853 199.061 45.64 199.061 47.048V47.304H208.853V47.048C208.853 45.6507 208.602 44.7067 208.101 44.216C207.61 43.7147 206.666 43.464 205.269 43.464H202.645ZM232.476 57C230.684 57 229.351 56.5627 228.476 55.688C227.602 54.8133 227.164 53.48 227.164 51.688C227.164 49.896 227.596 48.5627 228.46 47.688C229.335 46.8133 230.674 46.376 232.476 46.376H239.244C239.18 45.256 238.887 44.4933 238.364 44.088C237.842 43.672 236.946 43.464 235.676 43.464H233.82C232.754 43.464 231.959 43.5387 231.436 43.688C230.914 43.8267 230.546 44.0827 230.332 44.456C230.14 44.904 229.943 45.2133 229.74 45.384C229.538 45.5547 229.234 45.64 228.828 45.64C228.38 45.64 228.028 45.5173 227.772 45.272C227.516 45.016 227.442 44.68 227.548 44.264C227.868 43.0587 228.535 42.1787 229.548 41.624C230.572 41.0587 231.996 40.776 233.82 40.776H235.676C237.81 40.776 239.388 41.288 240.412 42.312C241.436 43.336 241.948 44.9147 241.948 47.048V55.656C241.948 56.552 241.5 57 240.604 57C239.708 57 239.26 56.552 239.26 55.656V54.936C238.119 56.312 236.455 57 234.268 57H232.476ZM232.476 54.312H234.268C235.058 54.312 235.799 54.2427 236.492 54.104C237.186 53.9547 237.778 53.688 238.268 53.304C238.77 52.92 239.1 52.3707 239.26 51.656V49.064H232.476C231.42 49.064 230.716 49.24 230.364 49.592C230.023 49.944 229.852 50.6427 229.852 51.688C229.852 52.744 230.023 53.448 230.364 53.8C230.716 54.1413 231.42 54.312 232.476 54.312ZM252.105 57C250.75 57 249.678 56.7227 248.889 56.168C248.099 55.6027 247.593 54.76 247.369 53.64C247.294 53.192 247.379 52.84 247.625 52.584C247.881 52.328 248.233 52.2 248.681 52.2C249.118 52.2 249.433 52.312 249.625 52.536C249.827 52.7493 249.993 53.0747 250.121 53.512C250.249 53.832 250.462 54.0453 250.761 54.152C251.07 54.2587 251.518 54.312 252.105 54.312H257.353C258.185 54.312 258.745 54.1787 259.033 53.912C259.321 53.6347 259.465 53.064 259.465 52.2C259.465 51.3467 259.321 50.7813 259.033 50.504C258.745 50.2267 258.185 50.088 257.353 50.088H252.201C250.665 50.088 249.507 49.6987 248.729 48.92C247.95 48.1413 247.561 46.984 247.561 45.448C247.561 43.88 247.939 42.712 248.697 41.944C249.465 41.1653 250.633 40.776 252.201 40.776H257.193C259.699 40.776 261.182 41.832 261.641 43.944C261.726 44.392 261.641 44.7387 261.385 44.984C261.129 45.2293 260.777 45.352 260.329 45.352C259.913 45.352 259.603 45.2453 259.401 45.032C259.198 44.808 259.038 44.4987 258.921 44.104C258.793 43.848 258.595 43.6773 258.329 43.592C258.073 43.5067 257.694 43.464 257.193 43.464H252.201C251.39 43.464 250.862 43.5867 250.617 43.832C250.371 44.0773 250.249 44.616 250.249 45.448C250.249 46.216 250.377 46.7333 250.633 47C250.899 47.2667 251.422 47.4 252.201 47.4H257.353C258.953 47.4 260.153 47.8 260.953 48.6C261.753 49.4 262.153 50.6 262.153 52.2C262.153 53.8107 261.753 55.016 260.953 55.816C260.153 56.6053 258.953 57 257.353 57H252.105ZM281.762 63.4C280.471 63.4 279.452 63.1387 278.706 62.616C277.97 62.0933 277.495 61.2987 277.282 60.232C277.207 59.784 277.287 59.432 277.522 59.176C277.756 58.92 278.114 58.792 278.594 58.792C278.999 58.792 279.292 58.8987 279.474 59.112C279.666 59.336 279.831 59.6667 279.97 60.104C280.098 60.3387 280.295 60.4987 280.562 60.584C280.839 60.6693 281.239 60.712 281.762 60.712H287.714C288.514 60.712 289.031 60.584 289.266 60.328C289.511 60.0827 289.634 59.5707 289.634 58.792V55.064C289.058 55.6933 288.343 56.1733 287.49 56.504C286.647 56.8347 285.698 57 284.642 57H283.426C281.303 57 279.724 56.488 278.69 55.464C277.666 54.44 277.154 52.872 277.154 50.76V47.048C277.154 44.904 277.66 43.3253 278.674 42.312C279.698 41.288 281.282 40.776 283.426 40.776H286.05C286.807 40.776 287.484 40.888 288.082 41.112C288.69 41.336 289.207 41.6773 289.634 42.136V42.12C289.634 41.224 290.082 40.776 290.978 40.776C291.874 40.776 292.322 41.224 292.322 42.12V58.792C292.322 60.36 291.943 61.5173 291.186 62.264C290.439 63.0213 289.282 63.4 287.714 63.4H281.762ZM283.426 54.312H284.642C286.05 54.312 287.234 54.136 288.194 53.784C289.154 53.432 289.634 52.872 289.634 52.104V45.704C289.634 44.84 289.319 44.2533 288.69 43.944C288.071 43.624 287.191 43.464 286.05 43.464H283.426C282.05 43.464 281.106 43.7093 280.594 44.2C280.092 44.6907 279.842 45.64 279.842 47.048V50.76C279.842 52.1147 280.092 53.048 280.594 53.56C281.095 54.0613 282.039 54.312 283.426 54.312ZM311.856 40.776C312.752 40.776 313.2 41.224 313.2 42.12V55.656C313.2 56.552 312.752 57 311.856 57C310.96 57 310.512 56.552 310.512 55.656V55.128C309.381 56.376 307.717 57 305.52 57H304.624C302.501 57 300.922 56.488 299.888 55.464C298.864 54.4293 298.352 52.8507 298.352 50.728V42.12C298.352 41.224 298.8 40.776 299.696 40.776C300.592 40.776 301.04 41.224 301.04 42.12V50.728C301.04 52.1147 301.29 53.0587 301.792 53.56C302.304 54.0613 303.248 54.312 304.624 54.312H305.52C306.8 54.312 307.914 54.1627 308.864 53.864C309.824 53.5653 310.373 53.1067 310.512 52.488V42.12C310.512 41.224 310.96 40.776 311.856 40.776ZM321.779 49.992V50.76C321.779 52.136 322.03 53.0747 322.531 53.576C323.033 54.0667 323.977 54.312 325.363 54.312H327.987C329.075 54.312 329.881 54.2107 330.403 54.008C330.926 53.8053 331.273 53.448 331.443 52.936C331.561 52.5307 331.721 52.2213 331.923 52.008C332.137 51.7947 332.457 51.688 332.883 51.688C333.331 51.688 333.673 51.8053 333.907 52.04C334.142 52.2747 334.217 52.616 334.131 53.064C333.897 54.3867 333.267 55.3733 332.243 56.024C331.219 56.6747 329.801 57 327.987 57H325.363C323.241 57 321.662 56.488 320.627 55.464C319.603 54.44 319.091 52.872 319.091 50.76V47.048C319.091 44.8827 319.603 43.2933 320.627 42.28C321.662 41.256 323.241 40.7547 325.363 40.776H327.987C330.121 40.776 331.699 41.288 332.723 42.312C333.747 43.3253 334.259 44.904 334.259 47.048V48.648C334.259 49.544 333.811 49.992 332.915 49.992H321.779ZM325.363 43.464C323.977 43.4427 323.033 43.6827 322.531 44.184C322.03 44.6853 321.779 45.64 321.779 47.048V47.304H331.571V47.048C331.571 45.6507 331.321 44.7067 330.819 44.216C330.329 43.7147 329.385 43.464 327.987 43.464H325.363ZM343.949 57C342.594 57 341.522 56.7227 340.733 56.168C339.943 55.6027 339.437 54.76 339.213 53.64C339.138 53.192 339.223 52.84 339.469 52.584C339.725 52.328 340.077 52.2 340.525 52.2C340.962 52.2 341.277 52.312 341.469 52.536C341.671 52.7493 341.837 53.0747 341.965 53.512C342.093 53.832 342.306 54.0453 342.605 54.152C342.914 54.2587 343.362 54.312 343.949 54.312H349.197C350.029 54.312 350.589 54.1787 350.877 53.912C351.165 53.6347 351.309 53.064 351.309 52.2C351.309 51.3467 351.165 50.7813 350.877 50.504C350.589 50.2267 350.029 50.088 349.197 50.088H344.045C342.509 50.088 341.351 49.6987 340.573 48.92C339.794 48.1413 339.405 46.984 339.405 45.448C339.405 43.88 339.783 42.712 340.541 41.944C341.309 41.1653 342.477 40.776 344.045 40.776H349.037C351.543 40.776 353.026 41.832 353.485 43.944C353.57 44.392 353.485 44.7387 353.229 44.984C352.973 45.2293 352.621 45.352 352.173 45.352C351.757 45.352 351.447 45.2453 351.245 45.032C351.042 44.808 350.882 44.4987 350.765 44.104C350.637 43.848 350.439 43.6773 350.173 43.592C349.917 43.5067 349.538 43.464 349.037 43.464H344.045C343.234 43.464 342.706 43.5867 342.461 43.832C342.215 44.0773 342.093 44.616 342.093 45.448C342.093 46.216 342.221 46.7333 342.477 47C342.743 47.2667 343.266 47.4 344.045 47.4H349.197C350.797 47.4 351.997 47.8 352.797 48.6C353.597 49.4 353.997 50.6 353.997 52.2C353.997 53.8107 353.597 55.016 352.797 55.816C351.997 56.6053 350.797 57 349.197 57H343.949ZM366.551 57C364.439 57 362.882 56.4987 361.879 55.496C360.876 54.4933 360.375 52.9467 360.375 50.856V43.464H358.807C357.911 43.464 357.463 43.016 357.463 42.12C357.463 41.224 357.911 40.776 358.807 40.776H360.375V38.44C360.375 37.544 360.823 37.096 361.719 37.096C362.615 37.096 363.063 37.544 363.063 38.44V40.776H366.743C367.639 40.776 368.087 41.224 368.087 42.12C368.087 43.016 367.639 43.464 366.743 43.464H363.063V50.856C363.063 52.2107 363.308 53.128 363.799 53.608C364.29 54.0773 365.207 54.312 366.551 54.312C366.967 54.312 367.292 54.4187 367.527 54.632C367.772 54.8453 367.895 55.1867 367.895 55.656C367.895 56.552 367.447 57 366.551 57Z" fill="white"/>
</svg>
