<svg width="349" height="96" viewBox="0 0 349 96" fill="none" xmlns="http://www.w3.org/2000/svg">
<path d="M317.479 1.5L347.5 32.2628V94.5H23.2079L2.21924 69.3691V1.5H317.479Z" stroke="#BDB2F6" stroke-width="3"/>
<path d="M330 0H349V20L339.5 10.5263L330 0Z" fill="#BDB2F6"/>
<path d="M98.8479 57C96.8532 57 95.3226 56.5893 94.2559 55.768C93.1999 54.936 92.5759 53.64 92.3839 51.88C92.3412 51.432 92.4372 51.0853 92.6719 50.84C92.9066 50.5947 93.2479 50.472 93.6959 50.472C94.5172 50.472 94.9759 50.92 95.0719 51.816C95.1999 52.7867 95.5466 53.448 96.1119 53.8C96.6772 54.1413 97.5892 54.312 98.8479 54.312H101.504C102.496 54.312 103.269 54.2 103.824 53.976C104.389 53.752 104.784 53.3627 105.008 52.808C105.232 52.2533 105.344 51.4747 105.344 50.472V36.648C105.344 35.752 105.792 35.304 106.688 35.304C107.584 35.304 108.032 35.752 108.032 36.648V50.472C108.032 52.7227 107.504 54.376 106.448 55.432C105.392 56.4773 103.744 57 101.504 57H98.8479ZM120.034 57C117.911 57 116.333 56.488 115.298 55.464C114.274 54.44 113.762 52.872 113.762 50.76V47.048C113.762 44.904 114.274 43.3253 115.298 42.312C116.333 41.288 117.911 40.776 120.034 40.776H122.658C124.791 40.776 126.37 41.288 127.394 42.312C128.418 43.336 128.93 44.9147 128.93 47.048V50.728C128.93 52.8507 128.418 54.4293 127.394 55.464C126.37 56.488 124.791 57 122.658 57H120.034ZM116.45 50.76C116.45 52.136 116.701 53.0747 117.202 53.576C117.703 54.0667 118.647 54.312 120.034 54.312H122.658C124.055 54.312 124.999 54.0613 125.49 53.56C125.991 53.0587 126.242 52.1147 126.242 50.728V47.048C126.242 45.6507 125.991 44.7067 125.49 44.216C124.999 43.7147 124.055 43.464 122.658 43.464H120.034C119.106 43.464 118.381 43.5707 117.858 43.784C117.346 43.9867 116.983 44.3493 116.77 44.872C116.557 45.384 116.45 46.1093 116.45 47.048V50.76ZM135.707 38.152C134.694 38.152 134.187 37.64 134.187 36.616V35.672C134.187 34.6693 134.694 34.168 135.707 34.168H136.635C137.606 34.168 138.091 34.6693 138.091 35.672V36.616C138.091 37.64 137.606 38.152 136.635 38.152H135.707ZM136.155 57C135.259 57 134.811 56.552 134.811 55.656V42.12C134.811 41.224 135.259 40.776 136.155 40.776C137.051 40.776 137.499 41.224 137.499 42.12V55.656C137.499 56.552 137.051 57 136.155 57ZM145.499 57C144.603 57 144.155 56.552 144.155 55.656V42.12C144.155 41.224 144.603 40.776 145.499 40.776C146.395 40.776 146.843 41.224 146.843 42.12V42.648C147.974 41.4 149.638 40.776 151.835 40.776H152.731C154.864 40.776 156.443 41.288 157.467 42.312C158.491 43.336 159.003 44.9147 159.003 47.048V55.656C159.003 56.552 158.555 57 157.659 57C156.763 57 156.315 56.552 156.315 55.656V47.048C156.315 45.6507 156.059 44.7067 155.547 44.216C155.046 43.7147 154.107 43.464 152.731 43.464H151.835C150.555 43.464 149.44 43.6133 148.491 43.912C147.542 44.2 146.992 44.6587 146.843 45.288V55.656C146.843 56.552 146.395 57 145.499 57ZM179.245 63.4C177.954 63.4 176.936 63.1387 176.189 62.616C175.453 62.0933 174.978 61.2987 174.765 60.232C174.69 59.784 174.77 59.432 175.005 59.176C175.24 58.92 175.597 58.792 176.077 58.792C176.482 58.792 176.776 58.8987 176.957 59.112C177.149 59.336 177.314 59.6667 177.453 60.104C177.581 60.3387 177.778 60.4987 178.045 60.584C178.322 60.6693 178.722 60.712 179.245 60.712H185.197C185.997 60.712 186.514 60.584 186.749 60.328C186.994 60.0827 187.117 59.5707 187.117 58.792V55.064C186.541 55.6933 185.826 56.1733 184.973 56.504C184.13 56.8347 183.181 57 182.125 57H180.909C178.786 57 177.208 56.488 176.173 55.464C175.149 54.44 174.637 52.872 174.637 50.76V47.048C174.637 44.904 175.144 43.3253 176.157 42.312C177.181 41.288 178.765 40.776 180.909 40.776H183.533C184.29 40.776 184.968 40.888 185.565 41.112C186.173 41.336 186.69 41.6773 187.117 42.136V42.12C187.117 41.224 187.565 40.776 188.461 40.776C189.357 40.776 189.805 41.224 189.805 42.12V58.792C189.805 60.36 189.426 61.5173 188.669 62.264C187.922 63.0213 186.765 63.4 185.197 63.4H179.245ZM180.909 54.312H182.125C183.533 54.312 184.717 54.136 185.677 53.784C186.637 53.432 187.117 52.872 187.117 52.104V45.704C187.117 44.84 186.802 44.2533 186.173 43.944C185.554 43.624 184.674 43.464 183.533 43.464H180.909C179.533 43.464 178.589 43.7093 178.077 44.2C177.576 44.6907 177.325 45.64 177.325 47.048V50.76C177.325 52.1147 177.576 53.048 178.077 53.56C178.578 54.0613 179.522 54.312 180.909 54.312ZM201.147 57C199.355 57 198.022 56.5627 197.147 55.688C196.272 54.8133 195.835 53.48 195.835 51.688C195.835 49.896 196.267 48.5627 197.131 47.688C198.006 46.8133 199.344 46.376 201.147 46.376H207.915C207.851 45.256 207.558 44.4933 207.035 44.088C206.512 43.672 205.616 43.464 204.347 43.464H202.491C201.424 43.464 200.63 43.5387 200.107 43.688C199.584 43.8267 199.216 44.0827 199.003 44.456C198.811 44.904 198.614 45.2133 198.411 45.384C198.208 45.5547 197.904 45.64 197.499 45.64C197.051 45.64 196.699 45.5173 196.443 45.272C196.187 45.016 196.112 44.68 196.219 44.264C196.539 43.0587 197.206 42.1787 198.219 41.624C199.243 41.0587 200.667 40.776 202.491 40.776H204.347C206.48 40.776 208.059 41.288 209.083 42.312C210.107 43.336 210.619 44.9147 210.619 47.048V55.656C210.619 56.552 210.171 57 209.275 57C208.379 57 207.931 56.552 207.931 55.656V54.936C206.79 56.312 205.126 57 202.939 57H201.147ZM201.147 54.312H202.939C203.728 54.312 204.47 54.2427 205.163 54.104C205.856 53.9547 206.448 53.688 206.939 53.304C207.44 52.92 207.771 52.3707 207.931 51.656V49.064H201.147C200.091 49.064 199.387 49.24 199.035 49.592C198.694 49.944 198.523 50.6427 198.523 51.688C198.523 52.744 198.694 53.448 199.035 53.8C199.387 54.1413 200.091 54.312 201.147 54.312ZM234.728 40.776C236.744 40.776 238.189 41.2507 239.064 42.2C239.949 43.1493 240.392 44.7227 240.392 46.92V55.656C240.392 56.552 239.944 57 239.048 57C238.152 57 237.704 56.552 237.704 55.656V46.92C237.704 45.704 237.469 44.824 237 44.28C236.541 43.736 235.784 43.464 234.728 43.464H233.416C232.2 43.464 231.33 43.736 230.808 44.28C230.285 44.824 230.024 45.704 230.024 46.92V55.656C230.024 56.552 229.576 57 228.68 57C227.784 57 227.336 56.552 227.336 55.656V46.92C227.336 45.704 227.101 44.824 226.632 44.28C226.173 43.736 225.416 43.464 224.36 43.464H223.048C221.832 43.464 220.962 43.736 220.44 44.28C219.917 44.824 219.656 45.704 219.656 46.92V55.656C219.656 56.552 219.208 57 218.312 57C217.416 57 216.968 56.552 216.968 55.656V42.12C216.968 41.224 217.416 40.776 218.312 40.776C219.208 40.776 219.656 41.224 219.656 42.12V42.856C220.221 42.12 220.84 41.592 221.512 41.272C222.194 40.9413 223.005 40.776 223.944 40.776H224.36C225.682 40.776 226.722 40.9627 227.48 41.336C228.237 41.6987 228.813 42.2907 229.208 43.112C229.773 42.2693 230.37 41.672 231 41.32C231.64 40.9573 232.445 40.776 233.416 40.776H234.728ZM248.638 49.992V50.76C248.638 52.136 248.888 53.0747 249.39 53.576C249.891 54.0667 250.835 54.312 252.222 54.312H254.846C255.934 54.312 256.739 54.2107 257.262 54.008C257.784 53.8053 258.131 53.448 258.302 52.936C258.419 52.5307 258.579 52.2213 258.782 52.008C258.995 51.7947 259.315 51.688 259.742 51.688C260.19 51.688 260.531 51.8053 260.766 52.04C261 52.2747 261.075 52.616 260.99 53.064C260.755 54.3867 260.126 55.3733 259.102 56.024C258.078 56.6747 256.659 57 254.846 57H252.222C250.099 57 248.52 56.488 247.486 55.464C246.462 54.44 245.95 52.872 245.95 50.76V47.048C245.95 44.8827 246.462 43.2933 247.486 42.28C248.52 41.256 250.099 40.7547 252.222 40.776H254.846C256.979 40.776 258.558 41.288 259.582 42.312C260.606 43.3253 261.118 44.904 261.118 47.048V48.648C261.118 49.544 260.67 49.992 259.774 49.992H248.638ZM252.222 43.464C250.835 43.4427 249.891 43.6827 249.39 44.184C248.888 44.6853 248.638 45.64 248.638 47.048V47.304H258.43V47.048C258.43 45.6507 258.179 44.7067 257.678 44.216C257.187 43.7147 256.243 43.464 254.846 43.464H252.222Z" fill="white"/>
</svg>
