<svg width="349" height="96" viewBox="0 0 349 96" fill="none" xmlns="http://www.w3.org/2000/svg">
<path d="M316.759 1.5L346.781 32.2628V94.5H22.4886L1.5 69.3691V1.5H316.759Z" fill="url(#paint0_linear_29_1437)" stroke="#C6A3FF" stroke-width="3"/>
<path d="M329 0H348V20L338.5 10.5263L329 0Z" fill="#C6A3FF"/>
<path d="M148.767 57C146.772 57 145.242 56.5893 144.175 55.768C143.119 54.936 142.495 53.64 142.303 51.88C142.26 51.432 142.356 51.0853 142.591 50.84C142.826 50.5947 143.167 50.472 143.615 50.472C144.436 50.472 144.895 50.92 144.991 51.816C145.119 52.7867 145.466 53.448 146.031 53.8C146.596 54.1413 147.508 54.312 148.767 54.312H151.423C152.415 54.312 153.188 54.2 153.743 53.976C154.308 53.752 154.703 53.3627 154.927 52.808C155.151 52.2533 155.263 51.4747 155.263 50.472V36.648C155.263 35.752 155.711 35.304 156.607 35.304C157.503 35.304 157.951 35.752 157.951 36.648V50.472C157.951 52.7227 157.423 54.376 156.367 55.432C155.311 56.4773 153.663 57 151.423 57H148.767ZM169.953 57C167.83 57 166.252 56.488 165.217 55.464C164.193 54.44 163.681 52.872 163.681 50.76V47.048C163.681 44.904 164.193 43.3253 165.217 42.312C166.252 41.288 167.83 40.776 169.953 40.776H172.577C174.71 40.776 176.289 41.288 177.313 42.312C178.337 43.336 178.849 44.9147 178.849 47.048V50.728C178.849 52.8507 178.337 54.4293 177.313 55.464C176.289 56.488 174.71 57 172.577 57H169.953ZM166.369 50.76C166.369 52.136 166.62 53.0747 167.121 53.576C167.622 54.0667 168.566 54.312 169.953 54.312H172.577C173.974 54.312 174.918 54.0613 175.409 53.56C175.91 53.0587 176.161 52.1147 176.161 50.728V47.048C176.161 45.6507 175.91 44.7067 175.409 44.216C174.918 43.7147 173.974 43.464 172.577 43.464H169.953C169.025 43.464 168.3 43.5707 167.777 43.784C167.265 43.9867 166.902 44.3493 166.689 44.872C166.476 45.384 166.369 46.1093 166.369 47.048V50.76ZM185.626 38.152C184.613 38.152 184.106 37.64 184.106 36.616V35.672C184.106 34.6693 184.613 34.168 185.626 34.168H186.554C187.525 34.168 188.01 34.6693 188.01 35.672V36.616C188.01 37.64 187.525 38.152 186.554 38.152H185.626ZM186.074 57C185.178 57 184.73 56.552 184.73 55.656V42.12C184.73 41.224 185.178 40.776 186.074 40.776C186.97 40.776 187.418 41.224 187.418 42.12V55.656C187.418 56.552 186.97 57 186.074 57ZM195.418 57C194.522 57 194.074 56.552 194.074 55.656V42.12C194.074 41.224 194.522 40.776 195.418 40.776C196.314 40.776 196.762 41.224 196.762 42.12V42.648C197.893 41.4 199.557 40.776 201.754 40.776H202.65C204.783 40.776 206.362 41.288 207.386 42.312C208.41 43.336 208.922 44.9147 208.922 47.048V55.656C208.922 56.552 208.474 57 207.578 57C206.682 57 206.234 56.552 206.234 55.656V47.048C206.234 45.6507 205.978 44.7067 205.466 44.216C204.965 43.7147 204.026 43.464 202.65 43.464H201.754C200.474 43.464 199.359 43.6133 198.41 43.912C197.461 44.2 196.911 44.6587 196.762 45.288V55.656C196.762 56.552 196.314 57 195.418 57Z" fill="white"/>
<defs>
<linearGradient id="paint0_linear_29_1437" x1="176.165" y1="-34.5" x2="176.165" y2="96" gradientUnits="userSpaceOnUse">
<stop stop-color="#6331B6" stop-opacity="0"/>
<stop offset="1" stop-color="#7135D4"/>
</linearGradient>
</defs>
</svg>
