<svg width="415" height="300" viewBox="0 0 415 300" fill="none" xmlns="http://www.w3.org/2000/svg">
<path fill-rule="evenodd" clip-rule="evenodd" d="M84.88 27.1321C84.88 14.9521 77.804 6.13608 65.276 2.65607C60.404 1.26407 53.56 0.800079 40.452 0.800079H22.24V28.6401V56.4801H41.844C61.332 56.4801 61.564 56.4801 65.044 59.4961C69.452 63.2081 69.8 67.8481 65.856 72.3721C63.188 75.3881 62.376 75.6201 51.588 76.2001L40.22 76.7801L39.872 85.3641L39.524 93.9481L52.632 93.3681C67.596 92.6721 73.744 90.5841 79.892 84.2041C84.648 79.2161 86.04 75.2721 86.04 67.2681C86.04 59.4961 82.676 52.8841 77.108 49.4041L73.28 46.9681L76.876 44.5321C82.212 40.8201 84.88 35.1361 84.88 27.1321ZM162.6 92.7881C162.6 92.3241 154.596 71.4441 144.968 46.3881C135.224 21.3321 126.872 0.800079 126.408 0.800079C126.375 0.800079 126.343 0.79895 126.312 0.797852C125.259 0.760223 125.191 0.757782 107.5 46.6201C103.5 56.9423 99.7514 66.5917 96.748 74.3237L96.742 74.3392L96.7234 74.3871L96.7216 74.3916C92.6855 84.782 90.001 91.6933 89.868 92.0921C89.404 93.2521 91.608 93.6001 98.568 93.6001H107.848L111.328 83.9721C113.184 78.7521 117.244 67.2681 120.26 58.4521C123.276 49.7521 126.06 42.7921 126.524 43.1401C126.872 43.4881 131.048 54.8561 135.92 68.4281L144.62 93.0201L153.668 93.3681C158.54 93.6001 162.6 93.3681 162.6 92.7881ZM221.76 17.0401V8.92007V0.800079H193.92H165.964L166.312 8.57208L166.66 16.4601L194.268 16.8081L221.76 17.0401ZM280.34 16.4601L280.688 8.57208L281.036 0.800079H253.08H225.24V8.92007V17.0401L252.848 16.8081L280.34 16.4601ZM301.22 58.2201V29.8001V1.38007L292.288 1.03207L283.24 0.684082V29.8001V58.9161L292.288 58.5681L301.22 58.2201ZM381.26 17.6201L381.608 9.15207L381.956 0.800079H359.8H337.76V47.2001V93.6001H359.8H381.84V84.9001V76.2001H368.5H355.16V65.7601V55.3201L374.068 55.0881L392.86 54.7401L393.208 46.8521L393.556 39.0801H374.3H355.16V28.6401V18.3161L368.268 17.9681L381.26 17.6201ZM203.2 93.6001V64.0201V34.4401H194.5H185.8V64.0201V93.6001H194.5H203.2ZM261.78 93.0201L262.128 63.6721L262.36 34.4401H253.08H243.8V64.0201V93.7161L252.848 93.3681L261.78 93.0201ZM334.86 93.0201V84.9001V76.7801L309.108 76.4321L283.24 76.2001V84.9001V93.6001L309.108 93.3681L334.86 93.0201ZM204.36 161.692C218.396 154.268 218.396 131.532 204.36 124.108C189.744 116.336 174.2 126.196 174.2 143.248C174.2 159.488 190.208 169.232 204.36 161.692ZM231.388 129.328C237.304 128.98 237.42 128.864 237.768 125.152L238.116 121.44H227.676H217.12V142.9V164.36H221.18H225.24V155.66V146.96H233.94H242.64V142.9V138.84H233.94H225.24V134.316V129.676L231.388 129.328ZM83.72 232.8V210.76V188.72L66.668 188.836C46.716 188.952 36.16 190.808 25.952 195.796C8.32005 204.496 0.200043 219.344 0.0840453 243.24C-0.0319597 271.08 10.872 286.972 35.928 295.092C43.584 297.644 47.644 298.108 64.348 298.688L83.72 299.268V288.596V278.04L66.436 278.156C44.628 278.388 38.248 276.648 30.128 268.644C23.864 262.38 21.08 254.84 21.08 243.82C21.08 222.824 32.564 210.876 54.952 208.788L62.84 208.092V220.504V232.8H73.28H83.72ZM174.084 296.832C174.084 295.788 164.804 271.196 153.436 242.196C142.184 213.196 132.324 189.3 131.512 188.952C130.7 188.72 129.772 189.532 129.308 190.692C128.96 191.852 119.564 216.096 108.428 244.748C97.408 273.284 88.36 297.18 88.36 297.876C88.36 298.572 92.42 298.92 99.148 298.688L109.82 298.34L120.26 268.528C126.06 252.056 131.048 238.6 131.396 238.6C131.86 238.6 135.34 247.88 139.4 259.132C142.558 268.235 146.312 278.752 148.635 285.261L148.647 285.294C149.219 286.899 149.705 288.259 150.072 289.292L153.552 298.92H163.876C172.924 298.92 174.2 298.688 174.084 296.832ZM252.848 218.416C251.92 205.192 246.7 197.304 235.1 191.968C229.764 189.532 227.56 189.3 204.128 188.952L178.84 188.604V198.464V208.44H199.14C215.148 208.44 220.368 208.788 224.08 210.296C231.504 213.312 234.52 222.012 230.344 228.044C226.748 233.032 222.224 233.96 199.72 233.96H178.84V266.44V298.92H189.28H199.72V276.88V254.84H205.868H211.9L221.876 276.532L231.852 298.34L243.104 298.688C249.252 298.804 254.24 298.572 254.24 297.992C254.24 297.412 249.832 287.552 244.496 276.068C243.752 274.47 243.055 272.973 242.402 271.572L242.402 271.571C235.064 255.826 233.321 252.087 234.485 250.553C234.847 250.075 235.492 249.811 236.336 249.464C236.567 249.37 236.813 249.269 237.072 249.156C247.628 244.4 253.776 232.568 252.848 218.416ZM336.6 216.212C330.568 203.452 317.344 194.056 300.06 190.46C295.072 189.416 285.328 188.72 274.888 188.72H257.72V210.76V232.8H268.74H279.76V220.504V208.092L287.416 208.904C301.22 210.296 309.688 214.588 315.024 222.824C319.432 229.552 320.708 235.468 320.128 246.72C319.432 261.104 314.096 269.92 303.308 274.792C298.436 276.88 282.428 279.548 280.688 278.504C280.224 278.156 279.76 272.704 279.76 266.324V254.84H268.74H257.72L257.952 276.532L258.3 298.34L276.86 298.224C296.928 298.108 305.28 296.6 316.068 291.264C323.144 287.552 331.264 280.244 334.976 273.98C343.792 258.784 344.604 233.264 336.6 216.212ZM404.808 197.42C402.836 195.796 399.124 193.36 396.456 191.968C393.208 190.228 389.032 189.416 383 189.068C370.472 188.604 364.44 190.808 356.436 198.928C348.896 206.468 346.692 212.036 346.808 222.824C347.04 239.296 359.104 251.128 377.896 253.216C385.9 254.144 390.076 256.232 392.744 260.64C396.688 267.484 393.324 275.836 385.32 278.156L380.68 279.548V289.408V299.268L386.016 298.456C397.5 296.948 406.78 290.684 411.652 281.056C414.088 276.3 414.784 273.516 414.784 267.02C414.784 248.46 403.532 236.628 383.232 234.076C373.024 232.8 369.544 230.712 367.804 224.912C366.76 221.316 366.876 219.692 368.384 216.212C372.908 205.308 391.584 206.584 394.02 217.836L394.832 221.2H404.576H414.32V216.792C414.32 211.224 409.448 201.248 404.808 197.42ZM39.872 29.3361C39.6401 24.2321 39.872 19.36 40.22 18.4321C41.148 15.9961 57.968 17.0401 62.2601 19.8241C68.7561 24.1161 68.8721 31.3081 62.608 35.9481C60.1721 37.804 57.6201 38.2681 49.8481 38.3841L40.22 38.5001L39.872 29.3361ZM187.424 131.648C182.204 135.824 180.696 143.944 184.06 150.44C186.264 154.732 189.048 156.24 194.5 156.24C199.952 156.24 202.736 154.732 204.94 150.44C208.304 143.944 206.216 133.62 200.996 130.72C197.516 128.864 190.092 129.328 187.424 131.648ZM197.864 141.392C198.792 143.016 198.676 143.828 197.168 145.336C193.688 148.816 188.468 144.292 191.6 140.464C193.456 138.376 196.124 138.724 197.864 141.392Z" fill="white"/>
</svg>
