<svg width="70" height="51" viewBox="0 0 70 51" fill="none" xmlns="http://www.w3.org/2000/svg">
<path fill-rule="evenodd" clip-rule="evenodd" d="M14.4563 5.3184C14.4563 3.3024 13.2851 1.84319 11.2115 1.2672C10.4051 1.0368 9.27225 0.959999 7.10265 0.959999H4.08825V5.56799V10.176H7.33305C10.5587 10.176 10.5971 10.176 11.1731 10.6752C11.9027 11.2896 11.9603 12.0576 11.3075 12.8064C10.8659 13.3056 10.7315 13.344 8.94585 13.44L7.06425 13.536L7.00665 14.9568L6.94905 16.3776L9.11865 16.2816C11.5955 16.1664 12.6131 15.8208 13.6307 14.7648C14.4179 13.9392 14.6483 13.2864 14.6483 11.9616C14.6483 10.6752 14.0915 9.5808 13.1699 9.0048L12.5363 8.6016L13.1315 8.1984C14.0147 7.584 14.4563 6.6432 14.4563 5.3184ZM27.3203 16.1856C27.3203 16.1088 25.9955 12.6528 24.4018 8.5056C22.7891 4.3584 21.4067 0.959999 21.3299 0.959999C21.3244 0.959999 21.3192 0.959813 21.3142 0.959632L21.314 0.959625C21.1397 0.9534 21.1285 0.953003 18.2003 8.544C17.5361 10.2577 16.9139 11.8594 16.4161 13.1411L16.4155 13.1425L16.4144 13.1453C15.7474 14.8625 15.3038 16.0044 15.2819 16.0704C15.2051 16.2624 15.5699 16.32 16.7219 16.32H18.2579L18.8339 14.7264C19.1411 13.8624 19.8131 11.9616 20.3123 10.5024C20.8115 9.0624 21.2723 7.9104 21.3491 7.96799C21.4067 8.0256 22.0979 9.9072 22.9043 12.1536L24.3443 16.224L25.8419 16.2816C26.6483 16.32 27.3203 16.2816 27.3203 16.1856ZM37.1123 3.64799V2.30399V0.959999H32.5042H27.8771L27.9347 2.2464L27.9923 3.55199L32.5619 3.6096L37.1123 3.64799ZM46.8083 3.55199L46.8659 2.2464L46.9235 0.959999H42.2962H37.6883V2.30399V3.64799L42.2579 3.6096L46.8083 3.55199ZM50.2643 10.464V5.75999V1.056L48.7859 0.998398L47.2883 0.940796V5.75999V10.5792L48.7859 10.5216L50.2643 10.464ZM63.5123 3.744L63.5699 2.3424L63.6275 0.959999H59.9603H56.3123V8.64V16.32H59.9603H63.6083V14.88V13.44H61.4003H59.1923V11.712V9.984L62.3219 9.9456L65.4323 9.888L65.4899 8.5824L65.5475 7.296H62.3603H59.1923V5.56799V3.8592L61.3619 3.8016L63.5123 3.744ZM34.0403 16.32V11.424V6.528H32.6003H31.1603V11.424V16.32H32.6003H34.0403ZM43.7363 16.224L43.7939 11.3664L43.8323 6.528H42.2962H40.7603V11.424V16.3392L42.2579 16.2816L43.7363 16.224ZM55.8323 16.224V14.88V13.536L51.5699 13.4784L47.2883 13.44V14.88V16.32L51.5699 16.2816L55.8323 16.224ZM34.2323 27.5904C36.5555 26.3616 36.5555 22.5984 34.2323 21.3696C31.8131 20.0832 29.2403 21.7152 29.2403 24.5376C29.2403 27.2256 31.8899 28.8384 34.2323 27.5904ZM37.6883 23.0592V22.2912L38.7058 22.2336C39.6851 22.176 39.7043 22.1568 39.7619 21.5424L39.8195 20.928H38.0915H36.3443V24.48V28.032H37.0163H37.6883V26.592V25.152H39.1283H40.5683V24.48V23.808H39.1283H37.6883V23.0592ZM14.2643 39.36V35.712V32.064L11.4419 32.0832C8.13945 32.1024 6.39225 32.4096 4.70265 33.2352C1.78425 34.6752 0.44025 37.1328 0.42105 41.088C0.401851 45.696 2.20665 48.3264 6.35385 49.6704C7.62105 50.0928 8.29305 50.1696 11.0579 50.2656L14.2643 50.3616V48.5952V46.848L11.4035 46.8672C7.79385 46.9056 6.73785 46.6176 5.39385 45.2928C4.35705 44.256 3.89625 43.008 3.89625 41.184C3.89625 37.7088 5.79705 35.7312 9.50265 35.3856L10.8083 35.2704V37.3248V39.36H12.5363H14.2643ZM29.2211 49.9584C29.2211 49.7856 27.6851 45.7152 25.8035 40.9152C23.9411 36.1152 22.3091 32.16 22.1747 32.1024C22.0403 32.064 21.8867 32.1984 21.8099 32.3904C21.7523 32.5824 20.1971 36.5952 18.3539 41.3376C16.5299 46.0608 15.0323 50.016 15.0323 50.1312C15.0323 50.2464 15.7043 50.304 16.8179 50.2656L18.5843 50.208L20.3123 45.2736C21.2723 42.5472 22.0979 40.32 22.1555 40.32C22.2323 40.32 22.8083 41.856 23.4803 43.7184C24.003 45.2252 24.6243 46.966 25.0088 48.0434C25.1045 48.3114 25.1855 48.5383 25.2467 48.7104L25.8227 50.304H27.5315C29.0291 50.304 29.2403 50.2656 29.2211 49.9584ZM42.2579 36.9792C42.1043 34.7904 41.2402 33.4848 39.3203 32.6016C38.437 32.1984 38.0723 32.16 34.1939 32.1024L30.0083 32.0448V33.6768V35.328H33.3683C36.0179 35.328 36.8819 35.3856 37.4963 35.6352C38.7251 36.1344 39.2243 37.5744 38.5331 38.5728C37.9379 39.3984 37.189 39.552 33.4642 39.552H30.0083V44.928V50.304H31.7363H33.4642V46.656V43.008H34.4818H35.4803L37.1315 46.5984L38.7827 50.208L40.6451 50.2656C41.6627 50.2848 42.4883 50.2464 42.4883 50.1504C42.4883 50.0544 41.7587 48.4224 40.8755 46.5216C40.7524 46.257 40.6369 46.0093 40.5288 45.7774L40.5288 45.7772C39.3142 43.1711 39.0258 42.5523 39.2184 42.2984C39.2784 42.2193 39.385 42.1756 39.5249 42.1182C39.5631 42.1026 39.6038 42.0859 39.6467 42.0672C41.3939 41.28 42.4115 39.3216 42.2579 36.9792ZM55.8515 46.176C57.3107 43.6608 57.4451 39.4368 56.1203 36.6144C55.1219 34.5024 52.9331 32.9472 50.0723 32.352C49.2467 32.1792 47.6339 32.064 45.9059 32.064H43.0643V35.712V39.36H44.8883H46.7122V37.3248V35.2704L47.9795 35.4048C50.2643 35.6352 51.6659 36.3456 52.5491 37.7088C53.2787 38.8224 53.4899 39.8016 53.3939 41.664C53.2787 44.0448 52.3955 45.504 50.6099 46.3104C49.8035 46.656 47.1539 47.0976 46.8659 46.9248C46.7891 46.8672 46.7122 45.9648 46.7122 44.9088V43.008H44.8883H43.0643L43.1027 46.5984L43.1603 50.208L46.2323 50.1888C49.5539 50.1696 50.9363 49.92 52.7219 49.0368C53.8931 48.4224 55.2371 47.2128 55.8515 46.176ZM68.9843 36.7104C68.9843 35.7888 68.1779 34.1376 67.4099 33.504C67.0835 33.2352 66.4691 32.832 66.0275 32.6016C65.4899 32.3136 64.7987 32.1792 63.8003 32.1216C61.7267 32.0448 60.7283 32.4096 59.4035 33.7536C58.1555 35.0016 57.7907 35.9232 57.8099 37.7088C57.8483 40.4352 59.8451 42.3936 62.9555 42.7392C64.2803 42.8928 64.9715 43.2384 65.4131 43.968C66.0659 45.1008 65.5091 46.4832 64.1843 46.8672L63.4163 47.0976V48.7296V50.3616L64.2995 50.2272C66.2003 49.9776 67.7363 48.9408 68.5427 47.3472C68.9459 46.56 69.0611 46.0992 69.0611 45.024C69.0611 41.952 67.1987 39.9936 63.8387 39.5712C62.1491 39.36 61.5731 39.0144 61.2851 38.0544C61.1123 37.4592 61.1315 37.1904 61.3811 36.6144C62.1299 34.8096 65.2211 35.0208 65.6243 36.8832L65.7587 37.44H67.3715H68.9843V36.7104ZM7.00665 5.68318C6.96825 4.83838 7.00665 4.03198 7.06425 3.87838C7.21785 3.47518 10.0019 3.64798 10.7123 4.10878C11.7875 4.81918 11.8067 6.00958 10.7699 6.77758C10.3667 7.08479 9.94425 7.16158 8.65785 7.18078L7.06425 7.19998L7.00665 5.68318ZM31.429 22.6176C30.565 23.3088 30.3154 24.6528 30.8722 25.728C31.237 26.4384 31.6978 26.688 32.6003 26.688C33.5026 26.688 33.9634 26.4384 34.3282 25.728C34.885 24.6528 34.5394 22.944 33.6754 22.464C33.0994 22.1568 31.8706 22.2336 31.429 22.6176ZM33.157 24.2304C33.3106 24.4992 33.2914 24.6336 33.0418 24.8832C32.4658 25.4592 31.6018 24.7104 32.1202 24.0768C32.4274 23.7312 32.869 23.7888 33.157 24.2304Z" fill="#AC8BDA"/>
</svg>
