<svg width="349" height="96" viewBox="0 0 349 96" fill="none" xmlns="http://www.w3.org/2000/svg">
<path d="M316.759 1.5L346.781 32.2628V94.5H22.4886L1.5 69.3691V1.5H316.759Z" fill="url(#paint0_linear_5_111)" stroke="#C6A3FF" stroke-width="3"/>
<path d="M329 0H348V20L338.5 10.5263L329 0Z" fill="#C6A3FF"/>
<path d="M163.583 35.304C164.308 35.304 164.671 35.752 164.671 36.648V55.656C164.671 56.0827 164.554 56.4133 164.319 56.648C164.084 56.8827 163.754 57 163.327 57C162.9 57 162.57 56.8827 162.335 56.648C162.1 56.4133 161.983 56.0827 161.983 55.656V40.84L156.095 49.512C155.882 49.8107 155.647 50.0347 155.391 50.184C155.135 50.312 154.826 50.376 154.463 50.376C154.207 50.376 153.972 50.312 153.759 50.184C153.567 50.0347 153.364 49.8107 153.151 49.512L147.231 40.808V55.656C147.231 56.0827 147.114 56.4133 146.879 56.648C146.644 56.8827 146.314 57 145.887 57C145.46 57 145.13 56.8827 144.895 56.648C144.66 56.4133 144.543 56.0827 144.543 55.656V36.648C144.543 36.2213 144.66 35.8907 144.895 35.656C145.13 35.4213 145.46 35.304 145.887 35.304C146.484 35.304 146.975 35.592 147.359 36.168L154.655 47.144L161.951 36.168C162.314 35.592 162.858 35.304 163.583 35.304ZM172.668 57C172.241 57 171.911 56.8827 171.676 56.648C171.441 56.4133 171.324 56.0827 171.324 55.656V42.12C171.324 41.6933 171.441 41.3627 171.676 41.128C171.911 40.8933 172.241 40.776 172.668 40.776C173.095 40.776 173.425 40.8933 173.66 41.128C173.895 41.3627 174.012 41.6933 174.012 42.12V55.656C174.012 56.0827 173.895 56.4133 173.66 56.648C173.425 56.8827 173.095 57 172.668 57ZM172.22 38.152C171.729 38.152 171.345 38.0133 171.068 37.736C170.812 37.4587 170.684 37.0853 170.684 36.616V35.656C170.684 35.1653 170.812 34.8027 171.068 34.568C171.345 34.312 171.729 34.184 172.22 34.184H173.148C174.108 34.184 174.588 34.6747 174.588 35.656V36.616C174.588 37.1067 174.46 37.4907 174.204 37.768C173.969 38.024 173.617 38.152 173.148 38.152H172.22ZM189.244 40.776C191.377 40.776 192.956 41.288 193.98 42.312C195.004 43.336 195.516 44.9147 195.516 47.048V55.656C195.516 56.0827 195.399 56.4133 195.164 56.648C194.929 56.8827 194.599 57 194.172 57C193.745 57 193.415 56.8827 193.18 56.648C192.945 56.4133 192.828 56.0827 192.828 55.656V47.048C192.828 46.1093 192.721 45.384 192.508 44.872C192.295 44.36 191.932 43.9973 191.42 43.784C190.908 43.5707 190.183 43.464 189.244 43.464H188.348C187.004 43.464 185.863 43.624 184.924 43.944C184.007 44.2427 183.484 44.6907 183.356 45.288V55.656C183.356 56.0827 183.239 56.4133 183.004 56.648C182.769 56.8827 182.439 57 182.012 57C181.585 57 181.255 56.8827 181.02 56.648C180.785 56.4133 180.668 56.0827 180.668 55.656V42.12C180.668 41.224 181.116 40.776 182.012 40.776C182.908 40.776 183.356 41.224 183.356 42.12V42.664C184.487 41.4053 186.151 40.776 188.348 40.776H189.244ZM208.703 54.312C209.599 54.312 210.047 54.76 210.047 55.656C210.047 56.0827 209.93 56.4133 209.695 56.648C209.461 56.8827 209.13 57 208.703 57C206.591 57 205.034 56.4987 204.031 55.496C203.029 54.4933 202.527 52.9467 202.527 50.856V43.464H200.959C200.533 43.464 200.202 43.3467 199.967 43.112C199.733 42.8773 199.615 42.5467 199.615 42.12C199.615 41.224 200.063 40.776 200.959 40.776H202.527V38.44C202.527 38.0133 202.645 37.6827 202.879 37.448C203.114 37.2133 203.445 37.096 203.871 37.096C204.298 37.096 204.629 37.2133 204.863 37.448C205.098 37.6827 205.215 38.0133 205.215 38.44V40.776H208.895C209.791 40.776 210.239 41.224 210.239 42.12C210.239 42.5467 210.122 42.8773 209.887 43.112C209.653 43.3467 209.322 43.464 208.895 43.464H205.215V50.856C205.215 51.7733 205.322 52.4773 205.535 52.968C205.749 53.4587 206.101 53.8107 206.591 54.024C207.082 54.216 207.786 54.312 208.703 54.312Z" fill="white"/>
<defs>
<linearGradient id="paint0_linear_5_111" x1="176.165" y1="-34.5" x2="176.165" y2="96" gradientUnits="userSpaceOnUse">
<stop stop-color="#6331B6" stop-opacity="0"/>
<stop offset="1" stop-color="#7135D4"/>
</linearGradient>
</defs>
</svg>
