<svg width="22" height="22" viewBox="0 0 22 22" fill="none" xmlns="http://www.w3.org/2000/svg">
<path d="M13.6538 11.0006L21.0757 3.57869C21.428 3.22707 21.6261 2.74993 21.6265 2.25222C21.627 1.75452 21.4297 1.27703 21.0781 0.924786C20.7264 0.572545 20.2493 0.374412 19.7516 0.373972C19.2539 0.373533 18.7764 0.570823 18.4242 0.922442L11.0023 8.34432L3.5804 0.922442C3.22816 0.570201 2.75042 0.372314 2.25228 0.372314C1.75413 0.372314 1.27639 0.570201 0.924151 0.922442C0.57191 1.27468 0.374023 1.75242 0.374023 2.25057C0.374023 2.74871 0.57191 3.22645 0.924151 3.57869L8.34603 11.0006L0.924151 18.4224C0.57191 18.7747 0.374023 19.2524 0.374023 19.7506C0.374023 20.2487 0.57191 20.7264 0.924151 21.0787C1.27639 21.4309 1.75413 21.6288 2.25228 21.6288C2.75042 21.6288 3.22816 21.4309 3.5804 21.0787L11.0023 13.6568L18.4242 21.0787C18.7764 21.4309 19.2541 21.6288 19.7523 21.6288C20.2504 21.6288 20.7282 21.4309 21.0804 21.0787C21.4326 20.7264 21.6305 20.2487 21.6305 19.7506C21.6305 19.2524 21.4326 18.7747 21.0804 18.4224L13.6538 11.0006Z" fill="white"/>
</svg>
