<svg width="349" height="96" viewBox="0 0 349 96" fill="none" xmlns="http://www.w3.org/2000/svg">
<path d="M316.759 1.5L346.781 32.2628V94.5H22.4886L1.5 69.3691V1.5H316.759Z" fill="url(#paint0_linear_14_336)" stroke="#C6A3FF" stroke-width="3"/>
<path d="M329 0H348V20L338.5 10.5263L329 0Z" fill="#C6A3FF"/>
<path d="M95.965 57C95.069 57 94.621 56.552 94.621 55.656V36.648C94.621 35.752 95.069 35.304 95.965 35.304C96.4236 35.304 96.8716 35.5707 97.309 36.104L110.173 52.68H109.501V36.648C109.501 35.752 109.949 35.304 110.845 35.304C111.741 35.304 112.189 35.752 112.189 36.648V55.656C112.189 56.552 111.741 57 110.845 57C110.365 57 109.917 56.7333 109.501 56.2L96.637 39.624H97.309V55.656C97.309 56.552 96.861 57 95.965 57ZM120.76 49.992V50.76C120.76 52.136 121.01 53.0747 121.512 53.576C122.013 54.0667 122.957 54.312 124.344 54.312H126.968C128.056 54.312 128.861 54.2107 129.384 54.008C129.906 53.8053 130.253 53.448 130.424 52.936C130.541 52.5307 130.701 52.2213 130.904 52.008C131.117 51.7947 131.437 51.688 131.864 51.688C132.312 51.688 132.653 51.8053 132.888 52.04C133.122 52.2747 133.197 52.616 133.112 53.064C132.877 54.3867 132.248 55.3733 131.224 56.024C130.2 56.6747 128.781 57 126.968 57H124.344C122.221 57 120.642 56.488 119.608 55.464C118.584 54.44 118.072 52.872 118.072 50.76V47.048C118.072 44.8827 118.584 43.2933 119.608 42.28C120.642 41.256 122.221 40.7547 124.344 40.776H126.968C129.101 40.776 130.68 41.288 131.704 42.312C132.728 43.3253 133.24 44.904 133.24 47.048V48.648C133.24 49.544 132.792 49.992 131.896 49.992H120.76ZM124.344 43.464C122.957 43.4427 122.013 43.6827 121.512 44.184C121.01 44.6853 120.76 45.64 120.76 47.048V47.304H130.552V47.048C130.552 45.6507 130.301 44.7067 129.8 44.216C129.309 43.7147 128.365 43.464 126.968 43.464H124.344ZM142.208 57C141.504 57 141.035 56.6373 140.8 55.912L136.352 42.536C136.075 41.7253 136.363 41.1707 137.216 40.872C138.059 40.584 138.624 40.872 138.912 41.736L142.528 52.504H142.32L145.728 41.736C145.963 41.032 146.475 40.68 147.264 40.68C148.011 40.68 148.491 41.0533 148.704 41.8L151.888 52.392H151.76L155.456 41.704C155.765 40.84 156.341 40.5627 157.184 40.872C158.027 41.1707 158.293 41.7467 157.984 42.6L153.12 55.912C152.853 56.6373 152.352 57 151.616 57C150.859 57 150.368 56.6267 150.144 55.88L146.848 44.872H147.2L143.616 55.912C143.509 56.264 143.333 56.536 143.088 56.728C142.843 56.9093 142.549 57 142.208 57ZM176.43 63.4C175.139 63.4 174.12 63.1387 173.374 62.616C172.638 62.0933 172.163 61.2987 171.95 60.232C171.875 59.784 171.955 59.432 172.19 59.176C172.424 58.92 172.782 58.792 173.262 58.792C173.667 58.792 173.96 58.8987 174.142 59.112C174.334 59.336 174.499 59.6667 174.638 60.104C174.766 60.3387 174.963 60.4987 175.23 60.584C175.507 60.6693 175.907 60.712 176.43 60.712H182.382C183.182 60.712 183.699 60.584 183.934 60.328C184.179 60.0827 184.302 59.5707 184.302 58.792V55.064C183.726 55.6933 183.011 56.1733 182.158 56.504C181.315 56.8347 180.366 57 179.31 57H178.094C175.971 57 174.392 56.488 173.358 55.464C172.334 54.44 171.822 52.872 171.822 50.76V47.048C171.822 44.904 172.328 43.3253 173.342 42.312C174.366 41.288 175.95 40.776 178.094 40.776H180.718C181.475 40.776 182.152 40.888 182.75 41.112C183.358 41.336 183.875 41.6773 184.302 42.136V42.12C184.302 41.224 184.75 40.776 185.646 40.776C186.542 40.776 186.99 41.224 186.99 42.12V58.792C186.99 60.36 186.611 61.5173 185.854 62.264C185.107 63.0213 183.95 63.4 182.382 63.4H176.43ZM178.094 54.312H179.31C180.718 54.312 181.902 54.136 182.862 53.784C183.822 53.432 184.302 52.872 184.302 52.104V45.704C184.302 44.84 183.987 44.2533 183.358 43.944C182.739 43.624 181.859 43.464 180.718 43.464H178.094C176.718 43.464 175.774 43.7093 175.262 44.2C174.76 44.6907 174.51 45.64 174.51 47.048V50.76C174.51 52.1147 174.76 53.048 175.262 53.56C175.763 54.0613 176.707 54.312 178.094 54.312ZM198.332 57C196.54 57 195.206 56.5627 194.332 55.688C193.457 54.8133 193.02 53.48 193.02 51.688C193.02 49.896 193.452 48.5627 194.316 47.688C195.19 46.8133 196.529 46.376 198.332 46.376H205.1C205.036 45.256 204.742 44.4933 204.22 44.088C203.697 43.672 202.801 43.464 201.532 43.464H199.676C198.609 43.464 197.814 43.5387 197.292 43.688C196.769 43.8267 196.401 44.0827 196.188 44.456C195.996 44.904 195.798 45.2133 195.596 45.384C195.393 45.5547 195.089 45.64 194.684 45.64C194.236 45.64 193.884 45.5173 193.628 45.272C193.372 45.016 193.297 44.68 193.404 44.264C193.724 43.0587 194.39 42.1787 195.404 41.624C196.428 41.0587 197.852 40.776 199.676 40.776H201.532C203.665 40.776 205.244 41.288 206.268 42.312C207.292 43.336 207.804 44.9147 207.804 47.048V55.656C207.804 56.552 207.356 57 206.46 57C205.564 57 205.116 56.552 205.116 55.656V54.936C203.974 56.312 202.31 57 200.124 57H198.332ZM198.332 54.312H200.124C200.913 54.312 201.654 54.2427 202.348 54.104C203.041 53.9547 203.633 53.688 204.124 53.304C204.625 52.92 204.956 52.3707 205.116 51.656V49.064H198.332C197.276 49.064 196.572 49.24 196.22 49.592C195.878 49.944 195.708 50.6427 195.708 51.688C195.708 52.744 195.878 53.448 196.22 53.8C196.572 54.1413 197.276 54.312 198.332 54.312ZM231.912 40.776C233.928 40.776 235.374 41.2507 236.248 42.2C237.134 43.1493 237.576 44.7227 237.576 46.92V55.656C237.576 56.552 237.128 57 236.232 57C235.336 57 234.888 56.552 234.888 55.656V46.92C234.888 45.704 234.654 44.824 234.184 44.28C233.726 43.736 232.968 43.464 231.912 43.464H230.6C229.384 43.464 228.515 43.736 227.992 44.28C227.47 44.824 227.208 45.704 227.208 46.92V55.656C227.208 56.552 226.76 57 225.864 57C224.968 57 224.52 56.552 224.52 55.656V46.92C224.52 45.704 224.286 44.824 223.816 44.28C223.358 43.736 222.6 43.464 221.544 43.464H220.232C219.016 43.464 218.147 43.736 217.624 44.28C217.102 44.824 216.84 45.704 216.84 46.92V55.656C216.84 56.552 216.392 57 215.496 57C214.6 57 214.152 56.552 214.152 55.656V42.12C214.152 41.224 214.6 40.776 215.496 40.776C216.392 40.776 216.84 41.224 216.84 42.12V42.856C217.406 42.12 218.024 41.592 218.696 41.272C219.379 40.9413 220.19 40.776 221.128 40.776H221.544C222.867 40.776 223.907 40.9627 224.664 41.336C225.422 41.6987 225.998 42.2907 226.392 43.112C226.958 42.2693 227.555 41.672 228.184 41.32C228.824 40.9573 229.63 40.776 230.6 40.776H231.912ZM245.822 49.992V50.76C245.822 52.136 246.073 53.0747 246.574 53.576C247.076 54.0667 248.02 54.312 249.406 54.312H252.03C253.118 54.312 253.924 54.2107 254.446 54.008C254.969 53.8053 255.316 53.448 255.486 52.936C255.604 52.5307 255.764 52.2213 255.966 52.008C256.18 51.7947 256.5 51.688 256.926 51.688C257.374 51.688 257.716 51.8053 257.95 52.04C258.185 52.2747 258.26 52.616 258.174 53.064C257.94 54.3867 257.31 55.3733 256.286 56.024C255.262 56.6747 253.844 57 252.03 57H249.406C247.284 57 245.705 56.488 244.67 55.464C243.646 54.44 243.134 52.872 243.134 50.76V47.048C243.134 44.8827 243.646 43.2933 244.67 42.28C245.705 41.256 247.284 40.7547 249.406 40.776H252.03C254.164 40.776 255.742 41.288 256.766 42.312C257.79 43.3253 258.302 44.904 258.302 47.048V48.648C258.302 49.544 257.854 49.992 256.958 49.992H245.822ZM249.406 43.464C248.02 43.4427 247.076 43.6827 246.574 44.184C246.073 44.6853 245.822 45.64 245.822 47.048V47.304H255.614V47.048C255.614 45.6507 255.364 44.7067 254.862 44.216C254.372 43.7147 253.428 43.464 252.03 43.464H249.406Z" fill="white"/>
<defs>
<linearGradient id="paint0_linear_14_336" x1="176.165" y1="-34.5" x2="176.165" y2="96" gradientUnits="userSpaceOnUse">
<stop stop-color="#6331B6" stop-opacity="0"/>
<stop offset="1" stop-color="#7135D4"/>
</linearGradient>
</defs>
</svg>
