<svg width="511" height="96" viewBox="0 0 511 96" fill="none" xmlns="http://www.w3.org/2000/svg">
<g opacity="0.5">
<path d="M479.479 1.5L509.5 32.2628V94.5H22.4886L1.5 69.3691V1.5H479.479Z" fill="url(#paint0_linear_29_955)" stroke="#C6A3FF" stroke-width="3"/>
<path d="M492 0H511V20L501.5 10.5263L492 0Z" fill="#C6A3FF"/>
<path d="M140.19 57C138.366 57 136.942 56.632 135.918 55.896C134.904 55.16 134.27 54.024 134.014 52.488C133.971 52.0187 134.067 51.6667 134.302 51.432C134.536 51.1973 134.878 51.08 135.326 51.08C135.774 51.08 136.099 51.1867 136.302 51.4C136.515 51.6133 136.659 51.944 136.734 52.392C136.894 53.128 137.235 53.6347 137.758 53.912C138.291 54.1787 139.102 54.312 140.19 54.312H144.798C146.174 54.312 147.107 54.0667 147.597 53.576C148.099 53.0747 148.35 52.1467 148.35 50.792C148.35 49.416 148.094 48.4773 147.582 47.976C147.07 47.464 146.142 47.208 144.798 47.208H140.83C138.814 47.208 137.315 46.7173 136.334 45.736C135.363 44.744 134.878 43.24 134.878 41.224C134.878 39.2187 135.358 37.7307 136.318 36.76C137.288 35.7893 138.782 35.304 140.798 35.304H144.606C146.302 35.304 147.63 35.6507 148.59 36.344C149.56 37.0373 150.174 38.0987 150.43 39.528C150.494 39.9867 150.408 40.3387 150.174 40.584C149.939 40.8187 149.587 40.936 149.118 40.936C148.691 40.936 148.371 40.824 148.158 40.6C147.944 40.376 147.806 40.0507 147.742 39.624C147.571 38.9947 147.246 38.568 146.766 38.344C146.286 38.1093 145.566 37.992 144.606 37.992H140.798C139.518 37.992 138.659 38.2213 138.222 38.68C137.784 39.128 137.566 39.976 137.566 41.224C137.566 42.4827 137.79 43.3467 138.238 43.816C138.686 44.2853 139.55 44.52 140.83 44.52H144.798C146.899 44.52 148.462 45.032 149.486 46.056C150.52 47.08 151.038 48.6587 151.038 50.792C151.038 52.9147 150.526 54.4827 149.502 55.496C148.478 56.4987 146.91 57 144.798 57H140.19ZM158.842 49.992V50.76C158.842 52.136 159.092 53.0747 159.594 53.576C160.095 54.0667 161.039 54.312 162.426 54.312H165.05C166.138 54.312 166.943 54.2107 167.466 54.008C167.988 53.8053 168.335 53.448 168.506 52.936C168.623 52.5307 168.783 52.2213 168.986 52.008C169.199 51.7947 169.519 51.688 169.946 51.688C170.394 51.688 170.735 51.8053 170.97 52.04C171.204 52.2747 171.279 52.616 171.194 53.064C170.959 54.3867 170.33 55.3733 169.306 56.024C168.282 56.6747 166.863 57 165.05 57H162.426C160.303 57 158.724 56.488 157.69 55.464C156.666 54.44 156.154 52.872 156.154 50.76V47.048C156.154 44.8827 156.666 43.2933 157.69 42.28C158.724 41.256 160.303 40.7547 162.426 40.776H165.05C167.183 40.776 168.762 41.288 169.786 42.312C170.81 43.3253 171.322 44.904 171.322 47.048V48.648C171.322 49.544 170.874 49.992 169.978 49.992H158.842ZM162.426 43.464C161.039 43.4427 160.095 43.6827 159.594 44.184C159.092 44.6853 158.842 45.64 158.842 47.048V47.304H168.634V47.048C168.634 45.6507 168.383 44.7067 167.882 44.216C167.391 43.7147 166.447 43.464 165.05 43.464H162.426ZM178.547 57C177.651 57 177.203 56.552 177.203 55.656V42.12C177.203 41.224 177.651 40.776 178.547 40.776C179.443 40.776 179.891 41.224 179.891 42.12V42.648C181.022 41.4 182.686 40.776 184.883 40.776H185.779C187.912 40.776 189.491 41.288 190.515 42.312C191.539 43.336 192.051 44.9147 192.051 47.048V55.656C192.051 56.552 191.603 57 190.707 57C189.811 57 189.363 56.552 189.363 55.656V47.048C189.363 45.6507 189.107 44.7067 188.595 44.216C188.094 43.7147 187.155 43.464 185.779 43.464H184.883C183.603 43.464 182.488 43.6133 181.539 43.912C180.59 44.2 180.04 44.6587 179.891 45.288V55.656C179.891 56.552 179.443 57 178.547 57ZM203.895 57C201.772 57 200.193 56.488 199.159 55.464C198.135 54.4293 197.623 52.8507 197.623 50.728V47.048C197.623 44.9147 198.135 43.336 199.159 42.312C200.193 41.288 201.772 40.776 203.895 40.776H210.103V35.816C210.103 34.92 210.551 34.472 211.447 34.472C212.343 34.472 212.791 34.92 212.791 35.816V55.656C212.791 56.552 212.343 57 211.447 57C210.551 57 210.103 56.552 210.103 55.656V55.432C209.601 55.944 208.945 56.3333 208.135 56.6C207.324 56.8667 206.316 57 205.111 57H203.895ZM203.895 54.312H205.111C206.519 54.312 207.703 54.1307 208.663 53.768C209.623 53.4053 210.103 52.8507 210.103 52.104V43.464H203.895C202.508 43.464 201.564 43.72 201.063 44.232C200.561 44.7333 200.311 45.672 200.311 47.048V50.728C200.311 52.1147 200.561 53.0587 201.063 53.56C201.575 54.0613 202.519 54.312 203.895 54.312ZM231.155 57C230.259 57 229.811 56.552 229.811 55.656V43.464H228.627C227.731 43.464 227.283 43.016 227.283 42.12C227.283 41.224 227.731 40.776 228.627 40.776H229.811V40.648C229.811 38.5467 230.318 36.9947 231.331 35.992C232.344 34.9787 233.896 34.472 235.987 34.472C236.755 34.472 237.139 34.92 237.139 35.816C237.139 36.712 236.755 37.16 235.987 37.16C234.643 37.16 233.726 37.4 233.235 37.88C232.744 38.36 232.499 39.2827 232.499 40.648V40.776H235.795C236.691 40.776 237.139 41.224 237.139 42.12C237.139 43.016 236.691 43.464 235.795 43.464H232.499V55.656C232.499 56.552 232.051 57 231.155 57ZM246.082 57C243.959 57 242.381 56.488 241.346 55.464C240.322 54.44 239.81 52.872 239.81 50.76V47.048C239.81 44.904 240.322 43.3253 241.346 42.312C242.381 41.288 243.959 40.776 246.082 40.776H248.706C250.839 40.776 252.418 41.288 253.442 42.312C254.466 43.336 254.978 44.9147 254.978 47.048V50.728C254.978 52.8507 254.466 54.4293 253.442 55.464C252.418 56.488 250.839 57 248.706 57H246.082ZM242.498 50.76C242.498 52.136 242.749 53.0747 243.25 53.576C243.751 54.0667 244.695 54.312 246.082 54.312H248.706C250.103 54.312 251.047 54.0613 251.538 53.56C252.039 53.0587 252.29 52.1147 252.29 50.728V47.048C252.29 45.6507 252.039 44.7067 251.538 44.216C251.047 43.7147 250.103 43.464 248.706 43.464H246.082C245.154 43.464 244.429 43.5707 243.906 43.784C243.394 43.9867 243.031 44.3493 242.818 44.872C242.605 45.384 242.498 46.1093 242.498 47.048V50.76ZM262.203 57C261.307 57 260.859 56.552 260.859 55.656V42.12C260.859 41.224 261.307 40.776 262.203 40.776C263.099 40.776 263.547 41.224 263.547 42.12V43.368C264.177 42.5147 264.977 41.8693 265.947 41.432C266.929 40.9947 268.049 40.776 269.307 40.776C270.203 40.776 270.651 41.224 270.651 42.12C270.651 43.016 270.203 43.464 269.307 43.464C267.462 43.464 266.054 43.8053 265.083 44.488C264.113 45.1707 263.601 46.072 263.547 47.192V55.656C263.547 56.552 263.099 57 262.203 57ZM285.922 57C285.026 57 284.578 56.552 284.578 55.656V35.816C284.578 34.92 285.026 34.472 285.922 34.472C286.818 34.472 287.266 34.92 287.266 35.816V42.488C287.821 41.9227 288.514 41.496 289.346 41.208C290.178 40.92 291.149 40.776 292.258 40.776H293.474C295.607 40.776 297.186 41.288 298.21 42.312C299.234 43.336 299.746 44.9147 299.746 47.048V50.728C299.746 52.8507 299.234 54.4293 298.21 55.464C297.186 56.488 295.607 57 293.474 57H292.258C291.149 57 290.178 56.856 289.346 56.568C288.514 56.28 287.821 55.8587 287.266 55.304V55.656C287.266 56.552 286.818 57 285.922 57ZM292.258 54.312H293.474C294.871 54.312 295.815 54.0613 296.306 53.56C296.807 53.048 297.058 52.104 297.058 50.728V47.048C297.058 45.6507 296.802 44.7067 296.29 44.216C295.789 43.7147 294.85 43.464 293.474 43.464H292.258C290.85 43.464 289.666 43.6453 288.706 44.008C287.746 44.36 287.266 44.9147 287.266 45.672V52.104C287.266 52.8507 287.746 53.4053 288.706 53.768C289.666 54.1307 290.85 54.312 292.258 54.312ZM310.633 57C308.841 57 307.507 56.5627 306.633 55.688C305.758 54.8133 305.321 53.48 305.321 51.688C305.321 49.896 305.753 48.5627 306.617 47.688C307.491 46.8133 308.83 46.376 310.633 46.376H317.401C317.337 45.256 317.043 44.4933 316.521 44.088C315.998 43.672 315.102 43.464 313.833 43.464H311.977C310.91 43.464 310.115 43.5387 309.593 43.688C309.07 43.8267 308.702 44.0827 308.489 44.456C308.297 44.904 308.099 45.2133 307.897 45.384C307.694 45.5547 307.39 45.64 306.985 45.64C306.537 45.64 306.185 45.5173 305.929 45.272C305.673 45.016 305.598 44.68 305.705 44.264C306.025 43.0587 306.691 42.1787 307.705 41.624C308.729 41.0587 310.153 40.776 311.977 40.776H313.833C315.966 40.776 317.545 41.288 318.569 42.312C319.593 43.336 320.105 44.9147 320.105 47.048V55.656C320.105 56.552 319.657 57 318.76 57C317.865 57 317.417 56.552 317.417 55.656V54.936C316.275 56.312 314.611 57 312.425 57H310.633ZM310.633 54.312H312.425C313.214 54.312 313.955 54.2427 314.649 54.104C315.342 53.9547 315.934 53.688 316.425 53.304C316.926 52.92 317.257 52.3707 317.417 51.656V49.064H310.633C309.577 49.064 308.873 49.24 308.521 49.592C308.179 49.944 308.009 50.6427 308.009 51.688C308.009 52.744 308.179 53.448 308.521 53.8C308.873 54.1413 309.577 54.312 310.633 54.312ZM333.301 57C331.189 57 329.632 56.4987 328.629 55.496C327.626 54.4933 327.125 52.9467 327.125 50.856V43.464H325.557C324.661 43.464 324.213 43.016 324.213 42.12C324.213 41.224 324.661 40.776 325.557 40.776H327.125V38.44C327.125 37.544 327.573 37.096 328.469 37.096C329.365 37.096 329.813 37.544 329.813 38.44V40.776H333.493C334.389 40.776 334.837 41.224 334.837 42.12C334.837 43.016 334.389 43.464 333.493 43.464H329.813V50.856C329.813 52.2107 330.058 53.128 330.549 53.608C331.04 54.0773 331.957 54.312 333.301 54.312C333.717 54.312 334.042 54.4187 334.277 54.632C334.522 54.8453 334.645 55.1867 334.645 55.656C334.645 56.552 334.197 57 333.301 57ZM346.707 57C344.595 57 343.038 56.4987 342.035 55.496C341.033 54.4933 340.531 52.9467 340.531 50.856V43.464H338.963C338.067 43.464 337.619 43.016 337.619 42.12C337.619 41.224 338.067 40.776 338.963 40.776H340.531V38.44C340.531 37.544 340.979 37.096 341.875 37.096C342.771 37.096 343.219 37.544 343.219 38.44V40.776H346.899C347.795 40.776 348.243 41.224 348.243 42.12C348.243 43.016 347.795 43.464 346.899 43.464H343.219V50.856C343.219 52.2107 343.465 53.128 343.955 53.608C344.446 54.0773 345.363 54.312 346.707 54.312C347.123 54.312 347.449 54.4187 347.683 54.632C347.929 54.8453 348.051 55.1867 348.051 55.656C348.051 56.552 347.603 57 346.707 57ZM358.098 57C356.466 57 355.25 56.6 354.45 55.8C353.66 54.9893 353.266 53.768 353.266 52.136V35.816C353.266 34.92 353.714 34.472 354.61 34.472C355.506 34.472 355.954 34.92 355.954 35.816V52.136C355.954 53 356.092 53.5813 356.37 53.88C356.658 54.168 357.234 54.312 358.098 54.312C359.015 54.312 359.474 54.76 359.474 55.656C359.506 56.552 359.047 57 358.098 57ZM365.529 49.992V50.76C365.529 52.136 365.78 53.0747 366.281 53.576C366.783 54.0667 367.727 54.312 369.113 54.312H371.737C372.825 54.312 373.631 54.2107 374.153 54.008C374.676 53.8053 375.023 53.448 375.193 52.936C375.311 52.5307 375.471 52.2213 375.673 52.008C375.887 51.7947 376.207 51.688 376.633 51.688C377.081 51.688 377.423 51.8053 377.657 52.04C377.892 52.2747 377.967 52.616 377.881 53.064C377.647 54.3867 377.017 55.3733 375.993 56.024C374.969 56.6747 373.551 57 371.737 57H369.113C366.991 57 365.412 56.488 364.377 55.464C363.353 54.44 362.841 52.872 362.841 50.76V47.048C362.841 44.8827 363.353 43.2933 364.377 42.28C365.412 41.256 366.991 40.7547 369.113 40.776H371.737C373.871 40.776 375.449 41.288 376.473 42.312C377.497 43.3253 378.009 44.904 378.009 47.048V48.648C378.009 49.544 377.561 49.992 376.665 49.992H365.529ZM369.113 43.464C367.727 43.4427 366.783 43.6827 366.281 44.184C365.78 44.6853 365.529 45.64 365.529 47.048V47.304H375.321V47.048C375.321 45.6507 375.071 44.7067 374.569 44.216C374.079 43.7147 373.135 43.464 371.737 43.464H369.113Z" fill="white"/>
</g>
<defs>
<linearGradient id="paint0_linear_29_955" x1="176.165" y1="-34.5" x2="176.165" y2="96" gradientUnits="userSpaceOnUse">
<stop stop-color="#6331B6" stop-opacity="0"/>
<stop offset="1" stop-color="#7135D4"/>
</linearGradient>
</defs>
</svg>
