<svg width="104" height="104" viewBox="0 0 104 104" fill="none" xmlns="http://www.w3.org/2000/svg">
<path d="M52 0C23.3275 0 0 23.3275 0 52C0 80.6725 23.3275 104 52 104C80.6725 104 104 80.6725 104 52C104 23.3275 80.6725 0 52 0ZM79.0625 34.5725L45.4625 74.5725C45.0939 75.0115 44.6353 75.3662 44.1177 75.6124C43.6001 75.8587 43.0356 75.9909 42.4625 76H42.395C41.8343 75.9998 41.28 75.8817 40.7679 75.6535C40.2558 75.4252 39.7974 75.0918 39.4225 74.675L25.0225 58.675C24.6568 58.2871 24.3723 57.83 24.1858 57.3306C23.9992 56.8312 23.9144 56.2996 23.9363 55.7669C23.9581 55.2343 24.0862 54.7114 24.3131 54.229C24.5399 53.7465 24.8609 53.3143 25.2572 52.9577C25.6534 52.6011 26.117 52.3273 26.6206 52.1524C27.1242 51.9775 27.6577 51.905 28.1897 51.9392C28.7217 51.9735 29.2415 52.1137 29.7185 52.3517C30.1955 52.5896 30.6202 52.9206 30.9675 53.325L42.29 65.905L72.9375 29.4275C73.625 28.6327 74.5976 28.1403 75.6451 28.0569C76.6927 27.9734 77.731 28.3055 78.5356 28.9814C79.3403 29.6573 79.8466 30.6227 79.9452 31.6689C80.0438 32.7152 79.7267 33.7582 79.0625 34.5725V34.5725Z" fill="#4AE03D"/>
</svg>
