<svg width="40" height="41" viewBox="0 0 40 41" fill="none" xmlns="http://www.w3.org/2000/svg">
<path fill-rule="evenodd" clip-rule="evenodd" d="M20.3835 4.24986C29.1806 4.4541 36.2495 11.6531 36.2495 20.4994C36.2495 29.482 28.9885 36.7664 19.9971 36.7494C10.9981 36.7325 3.64987 29.3373 3.74954 20.3298C3.79021 16.3906 5.26149 12.6005 7.8893 9.66562C8.3498 9.1513 9.14006 9.10768 9.65438 9.56818C10.1687 10.0287 10.2123 10.8189 9.75182 11.3333C7.52848 13.8164 6.2837 17.0232 6.2494 20.3561L6.24939 20.3571C6.16496 27.9666 12.3838 34.2351 20.0018 34.2494C27.6042 34.2638 33.7495 28.1059 33.7495 20.4994C33.7495 13.3262 28.2563 7.43299 21.2495 6.80144V12.3744C21.2495 13.0648 20.6898 13.6244 19.9995 13.6244C19.3091 13.6244 18.7495 13.0648 18.7495 12.3744V5.84208C18.7492 5.62929 18.7916 5.4186 18.8742 5.22249C18.9571 5.02568 19.0787 4.84757 19.2319 4.69879C19.3851 4.55002 19.5667 4.43361 19.7659 4.35651C19.9627 4.28035 20.1726 4.24411 20.3835 4.24986Z" fill="#B1C8C0"/>
<path d="M18.2323 22.2674L12.0604 13.4393C11.975 13.317 11.9354 13.1685 11.9485 13.0199C11.9616 12.8713 12.0266 12.7321 12.1321 12.6266C12.2376 12.5211 12.3768 12.4561 12.5254 12.443C12.674 12.4299 12.8225 12.4695 12.9448 12.5549L21.7729 18.7268C22.3144 19.1168 22.6806 19.7043 22.7923 20.3622C22.9039 21.0201 22.7521 21.6955 22.3697 22.2423C21.9872 22.7892 21.4049 23.1635 20.7486 23.2842C20.0923 23.405 19.4148 23.2626 18.8627 22.8877C18.6186 22.7186 18.4054 22.5087 18.2323 22.2674Z" fill="#B1C8C0"/>
</svg>
