<svg width="349" height="96" viewBox="0 0 349 96" fill="none" xmlns="http://www.w3.org/2000/svg">
<path d="M1.5 1.5H316.759L346.781 32.2628V94.5H22.4886L1.5 69.3691V1.5Z" stroke="#BDB2F6" stroke-width="3"/>
<path d="M329.28 0H348.28V20L338.78 10.5263L329.28 0Z" fill="#BDB2F6"/>
<path d="M158.273 57C157.377 57 156.929 56.552 156.929 55.656V49.128L149.601 37.448C149.153 36.68 149.291 36.0507 150.017 35.56C150.785 35.0907 151.403 35.2293 151.873 35.976L158.273 46.248L164.993 35.976C165.217 35.624 165.489 35.416 165.809 35.352C166.129 35.2773 166.465 35.368 166.817 35.624C167.595 36.104 167.734 36.712 167.233 37.448L159.617 49.128V55.656C159.617 56.552 159.169 57 158.273 57ZM170.341 49.992V50.76C170.341 52.136 170.591 53.0747 171.093 53.576C171.594 54.0667 172.538 54.312 173.925 54.312H176.549C177.637 54.312 178.442 54.2107 178.965 54.008C179.487 53.8053 179.834 53.448 180.005 52.936C180.122 52.5307 180.282 52.2213 180.485 52.008C180.698 51.7947 181.018 51.688 181.445 51.688C181.893 51.688 182.234 51.8053 182.469 52.04C182.703 52.2747 182.778 52.616 182.693 53.064C182.458 54.3867 181.829 55.3733 180.805 56.024C179.781 56.6747 178.362 57 176.549 57H173.925C171.802 57 170.223 56.488 169.189 55.464C168.165 54.44 167.653 52.872 167.653 50.76V47.048C167.653 44.8827 168.165 43.2933 169.189 42.28C170.223 41.256 171.802 40.7547 173.925 40.776H176.549C178.682 40.776 180.261 41.288 181.285 42.312C182.309 43.3253 182.821 44.904 182.821 47.048V48.648C182.821 49.544 182.373 49.992 181.477 49.992H170.341ZM173.925 43.464C172.538 43.4427 171.594 43.6827 171.093 44.184C170.591 44.6853 170.341 45.64 170.341 47.048V47.304H180.133V47.048C180.133 45.6507 179.882 44.7067 179.381 44.216C178.89 43.7147 177.946 43.464 176.549 43.464H173.925ZM192.51 57C191.155 57 190.083 56.7227 189.294 56.168C188.505 55.6027 187.998 54.76 187.774 53.64C187.699 53.192 187.785 52.84 188.03 52.584C188.286 52.328 188.638 52.2 189.086 52.2C189.523 52.2 189.838 52.312 190.03 52.536C190.233 52.7493 190.398 53.0747 190.526 53.512C190.654 53.832 190.867 54.0453 191.166 54.152C191.475 54.2587 191.923 54.312 192.51 54.312H197.758C198.59 54.312 199.15 54.1787 199.438 53.912C199.726 53.6347 199.87 53.064 199.87 52.2C199.87 51.3467 199.726 50.7813 199.438 50.504C199.15 50.2267 198.59 50.088 197.758 50.088H192.606C191.07 50.088 189.913 49.6987 189.134 48.92C188.355 48.1413 187.966 46.984 187.966 45.448C187.966 43.88 188.345 42.712 189.102 41.944C189.87 41.1653 191.038 40.776 192.606 40.776H197.598C200.105 40.776 201.587 41.832 202.046 43.944C202.131 44.392 202.046 44.7387 201.79 44.984C201.534 45.2293 201.182 45.352 200.734 45.352C200.318 45.352 200.009 45.2453 199.806 45.032C199.603 44.808 199.443 44.4987 199.326 44.104C199.198 43.848 199.001 43.6773 198.734 43.592C198.478 43.5067 198.099 43.464 197.598 43.464H192.606C191.795 43.464 191.267 43.5867 191.022 43.832C190.777 44.0773 190.654 44.616 190.654 45.448C190.654 46.216 190.782 46.7333 191.038 47C191.305 47.2667 191.827 47.4 192.606 47.4H197.758C199.358 47.4 200.558 47.8 201.358 48.6C202.158 49.4 202.558 50.6 202.558 52.2C202.558 53.8107 202.158 55.016 201.358 55.816C200.558 56.6053 199.358 57 197.758 57H192.51Z" fill="white"/>
</svg>
